<svg width="1280" height="740" viewBox="0 0 1280 740" fill="none" xmlns="http://www.w3.org/2000/svg">
<path d="M722.679 375.74C722.679 374.34 722.679 372.95 722.679 371.55C721.779 371.55 720.879 371.55 719.989 371.56C719.989 374.1 718.179 375.74 710.229 377.83H710.249C684.279 383.88 676.499 398.95 669.909 431.5C665.829 452.14 657.959 464.02 616.679 464.37C608.779 464.46 600.889 464.59 592.989 464.73C585.239 464.17 581.409 462.92 581.399 460.94C580.509 460.94 579.609 460.94 578.709 460.93C578.709 462.3 578.709 463.66 578.709 465.03C578.679 479.54 578.649 494.04 578.619 508.55C578.619 510.04 578.619 511.53 578.619 513.03C579.519 513.03 580.419 513.03 581.309 513.02C581.309 510.99 584.679 509.66 591.479 509C601.709 508.71 611.929 508.48 622.159 508.34C679.279 507.74 708.909 487.33 715.869 435.26C716.259 432.4 717.029 430.04 718.719 428.39C719.619 428.86 720.089 429.41 720.089 430.04C720.979 430.04 721.879 430.04 722.779 430.05C722.779 428.78 722.779 427.51 722.779 426.25C722.739 409.41 722.709 392.58 722.669 375.74H722.679Z" fill="white"/>
<path d="M870.05 364.88C858.58 364.88 851.53 369.22 849.06 378.29C820.04 378.05 791.02 377.88 762 377.75C752.99 377.3 748.54 376.11 748.53 374.12C747.64 374.12 746.74 374.12 745.84 374.11C745.84 375.38 745.84 376.65 745.84 377.92C745.88 392.42 745.91 406.93 745.95 421.43C745.95 422.83 745.95 424.22 745.95 425.62C746.85 425.62 747.75 425.62 748.64 425.61C748.64 423.55 752.58 422.27 760.54 421.71C786.66 422.22 812.78 422.91 838.88 423.8C838.89 426.49 838.9 429.18 838.91 431.86C839.03 460.97 823.04 469.09 778.97 467.13C773.81 466.92 768.64 466.75 763.48 466.57C757.53 465.91 754.57 464.71 754.57 462.93C753.68 462.93 752.78 462.93 751.88 462.92C751.88 464.32 751.88 465.72 751.88 467.12H751.89C751.93 482.09 751.97 497.07 752.01 512.04C752.01 513.15 752.01 514.26 752.01 515.37C752.91 515.37 753.81 515.37 754.7 515.36C754.7 514.04 757.27 513.13 762.43 512.59C767.52 512.85 772.62 513.09 777.71 513.39C843.9 517.75 885.83 496.57 885.57 432.4C885.53 423.86 885.5 415.33 885.46 406.79C890 403.2 892.33 397.12 892.29 388.08C892.22 372.2 884.97 364.87 870.05 364.9V364.88ZM870.17 393.25C866.56 393.18 864.82 391.81 864.8 387.13C864.78 383.11 866.5 381.63 870.12 381.67C873.58 381.71 875.31 383.24 875.32 387.29C875.34 392.01 873.78 393.32 870.16 393.25H870.17Z" fill="white"/>
<path d="M994.701 374.55C992.371 374.55 990.051 374.54 987.721 374.54C987.731 375.63 987.731 376.73 987.741 377.81C991.551 377.82 993.761 383.72 994.501 395.67C994.531 410.39 994.561 425.1 994.591 439.82C994.641 471.54 985.611 481.03 962.581 478.58C952.781 477.58 942.981 476.64 933.171 475.74C928.661 474.79 926.411 473.26 926.401 471.13C925.511 471.13 924.611 471.13 923.711 471.11C923.711 472.36 923.711 473.61 923.711 474.87C923.781 491.8 923.841 508.74 923.901 525.67C923.901 527.06 923.901 528.46 923.901 529.85C924.801 529.85 925.701 529.85 926.591 529.84C926.591 528.47 928.361 527.45 931.881 526.75C942.641 528.19 953.401 529.7 964.151 531.31C1013.09 539.11 1040.74 524.17 1040.78 444.36V400.3C1041.24 385.54 1043.51 378.28 1047.74 378.27C1047.75 377.19 1047.75 376.1 1047.76 375C1045.43 375 1043.1 375.01 1040.78 375.01C1025.42 374.85 1010.06 374.69 994.701 374.55Z" fill="white"/>
<path d="M342.829 345.22C335.919 345.19 334.109 330.12 333.599 299.44C333.049 266.29 332.499 233.14 331.949 199.99C331.439 169.31 334.519 154.96 341.429 156.35C341.399 154.44 341.369 152.53 341.329 150.63C302.719 142.84 264.329 133.59 226.259 122.88C226.289 125.05 226.309 127.21 226.339 129.38C233.159 131.29 236.659 148.85 237.099 182.84C237.169 188.08 237.229 193.33 237.299 198.57C228.319 196.9 219.349 195.17 210.399 193.38C210.339 187.96 210.279 182.55 210.229 177.13C209.859 141.92 212.959 125.62 219.769 127.56C219.739 125.38 219.719 123.19 219.699 121.01C181.659 110.13 143.939 97.7905 106.609 83.9805V91.5705C113.289 94.0305 116.549 114.62 116.609 154.24C116.659 197.16 116.719 240.08 116.769 283C116.819 322.62 113.519 342.02 106.619 341.96V349.55C145.179 349.84 183.739 350.1 222.309 350.33C222.279 348.15 222.259 345.96 222.239 343.78C215.339 343.73 211.819 326.44 211.449 291.23C211.369 283.6 211.289 275.97 211.209 268.34C220.209 269.3 229.209 270.23 238.229 271.12C238.319 278.51 238.419 285.89 238.509 293.27C238.939 327.26 235.809 343.91 228.909 343.86C228.939 346.03 228.959 348.19 228.989 350.36C267.559 350.58 304.369 350.78 342.949 350.94C342.919 349.03 342.889 347.12 342.849 345.22H342.829Z" fill="white"/>
<path d="M549.68 306.88C531.25 263.55 512.65 219.2 493.9 173.16C468.51 170.5 443.17 167.21 417.91 163.31C417.9 163.34 417.88 163.38 417.87 163.41C414.92 162.71 411.97 162 409.02 161.31C408.7 162.74 408.36 164.16 408.05 165.58C411.15 166.32 412.74 169.86 412.83 176.27C397.17 216.28 381.61 257.74 366.09 301.2C355.63 330.49 350.38 345.23 345.85 345.16C345.88 347.08 345.91 349 345.95 350.93C368.65 351.03 387.82 351.12 410.53 351.19C410.5 349.38 410.47 347.58 410.44 345.77C404.48 345.74 405.49 335.11 408.2 325.69C425.6 326.12 443.01 326.51 460.42 326.85C464.17 338.37 464.52 346.14 459.04 346.12C459.07 347.86 459.09 349.6 459.12 351.34C497.71 351.45 536.31 351.52 574.9 351.57C574.89 349.93 574.88 348.29 574.86 346.65C570.33 346.62 560.94 333.38 549.69 306.89L549.68 306.88ZM421.63 288.75C425.52 278.51 429.41 268.37 433.31 258.32C437.54 268.98 441.77 279.53 445.99 289.99C437.87 289.6 429.75 289.19 421.63 288.76V288.75Z" fill="white"/>
<path d="M700.161 305.23C673.611 305.48 653.531 292.14 653.531 266.67C653.531 242.86 668.241 227.93 697.661 227.24C711.881 226.89 719.321 230.51 726.971 237.38C728.421 236.76 729.871 236.13 731.311 235.5C730.541 221.19 729.761 206.89 728.981 192.61C728.861 189.67 728.751 186.72 728.631 183.78C727.171 183.86 725.711 183.92 724.261 183.99C724.081 186.04 722.651 188.23 715.761 186.09C714.631 185.65 713.471 185.23 712.291 184.82C712.221 184.79 712.161 184.77 712.091 184.74L712.171 184.78C699.011 180.28 682.881 177.8 664.731 178.02C599.991 178.59 554.551 209.67 555.091 265.32C555.611 320.83 600.921 355.4 664.431 355.24C686.941 355.24 704.111 352.22 717.601 346.56C724.201 344.91 723.711 346.3 723.661 348.22C724.951 348.44 726.261 348.64 727.561 348.86C727.981 346.16 728.391 343.46 728.811 340.76C728.811 340.76 728.831 340.75 728.841 340.74C731.491 326.23 734.151 311.69 736.831 297.1C735.401 296.55 733.971 296.01 732.541 295.46C724.601 300.53 715.001 305.08 700.171 305.23H700.161Z" fill="white"/>
<path d="M854.14 346.05C847.23 346.07 844.1 332.55 844.51 304.96C844.64 296.54 844.76 288.12 844.89 279.69C849.55 287.86 854.19 296.11 858.84 304.44C873.92 331.56 877.96 345.95 871.06 345.93C871.03 347.7 870.999 349.47 870.969 351.24C911.939 351.11 952.91 350.95 993.87 350.76C993.9 348.77 993.93 346.79 993.96 344.8C989.44 344.89 978.01 329.32 963.28 299.58C947.08 267.16 930.879 236.35 914.599 206.75C941.129 174.94 957.35 156.39 961.88 155.59C961.91 153.68 961.939 151.76 961.979 149.85C939.269 154.49 916.47 158.63 893.62 162.26C893.59 164.06 893.56 165.86 893.53 167.66C900.48 166.41 890.899 182.64 863.599 213.59C857.589 220.37 851.58 227.04 845.58 233.61C845.67 227.53 845.759 221.46 845.849 215.38C846.269 187.79 849.84 173.84 856.81 172.9C856.84 171.15 856.86 169.4 856.89 167.65C817.95 172.9 778.86 176.68 739.7 179.01C739.69 180.65 739.669 182.3 739.659 183.94C746.669 183.52 749.93 196.16 749.69 222.4C749.43 250.77 749.169 279.14 748.909 307.51C748.669 333.74 745.21 346.62 738.31 346.63C738.3 348.27 738.28 349.92 738.27 351.56C776.87 351.51 815.459 351.43 854.049 351.32C854.079 349.57 854.1 347.82 854.13 346.07L854.14 346.05Z" fill="white"/>
<path d="M1161.47 283C1161.55 216 1161.63 149 1161.71 82C1160.25 82.54 1158.79 83.08 1157.33 83.62C1112.17 110.64 1070.57 126.24 1040.32 135.86C1040.29 138.04 1040.27 139.23 1040.25 141.41C1047.07 139.7 1069.61 135.8 1067.71 205.32C1067.41 233.96 1067.1 262.59 1066.8 291.23C1066.17 336.71 1068.43 343.71 1054.24 343.78C1054.21 345.96 1054.19 348.15 1054.17 350.33C1092.74 350.1 1134.86 350.62 1173.41 350.33V343.78C1158 343.81 1161.04 336.68 1161.48 283.01L1161.47 283Z" fill="white"/>
<path d="M970.27 230.62C970.27 230.62 970.27 230.67 970.29 230.69C974.13 248.95 972.08 240.75 976.68 268.97C976.95 270.88 977.21 272.79 977.48 274.69C978.55 274.55 979.63 274.43 980.69 274.29C980.24 271.03 983.14 269.41 994.49 268.86C1006.15 268.82 1017.52 268.84 1029.2 268.66C1040.47 269.08 1042.45 270.88 1042.58 274.1C1043.65 274.08 1044.73 274.05 1045.82 274.03C1045.75 272.07 1045.66 270.12 1045.59 268.17C1045.36 245.82 1045.29 245.06 1044.41 224.55H1044.42C1044.35 222.41 1044.3 220.28 1044.23 218.14C1043.15 218.17 1042.06 218.2 1040.99 218.23C1041.1 222.1 1037.8 224.29 1019.67 226.63C1009 227.55 998.36 228.35 987.97 229.15L995.25 228.53C976.73 229.48 973 227.7 972.26 223.87C971.2 224.03 970.14 224.2 969.07 224.35C969.47 226.43 969.87 228.51 970.27 230.59V230.62Z" fill="white"/>
<path d="M421.631 413.18C421.631 414.58 421.631 415.97 421.631 417.37C422.531 417.37 423.431 417.37 424.321 417.36C424.321 415.23 428.561 413.93 437.111 413.4C470.791 412.21 504.491 411.33 538.211 410.74C546.121 411.25 550.031 412.41 550.031 414.28C550.921 414.28 551.821 414.28 552.721 414.29C552.721 413.02 552.721 411.75 552.721 410.49C552.751 397.92 552.781 385.35 552.811 372.78C552.811 371.38 552.811 369.98 552.811 368.59C551.911 368.59 551.011 368.59 550.121 368.6C550.121 370.89 545.241 372.22 535.381 372.66C502.821 372.78 470.271 372.95 437.721 373.18C428.861 372.72 424.481 371.53 424.481 369.56C423.591 369.56 422.691 369.56 421.791 369.55C421.791 370.82 421.791 372.09 421.791 373.36C421.741 386.64 421.691 399.91 421.631 413.19V413.18Z" fill="white"/>
<path d="M579.289 420.75C579.289 422.15 579.289 423.54 579.289 424.94C580.189 424.94 581.089 424.94 581.979 424.93C581.979 423.21 584.729 422.04 590.249 421.37C603.439 421.22 616.639 421.13 629.829 421.08C637.809 421.59 641.739 422.75 641.749 424.62C642.639 424.62 643.539 424.62 644.439 424.63C644.439 423.37 644.439 422.1 644.439 420.84C644.439 406.4 644.439 391.96 644.439 377.52C644.439 376.19 644.439 374.86 644.439 373.54C643.539 373.54 642.639 373.54 641.749 373.55C641.749 375.73 637.309 377.05 628.329 377.55C618.569 377.56 608.809 377.58 599.049 377.6C587.689 377.29 582.089 376.07 582.079 373.84C581.189 373.84 580.289 373.84 579.389 373.83C579.389 375.1 579.389 376.37 579.389 377.64C579.359 392.02 579.329 406.39 579.299 420.77L579.289 420.75Z" fill="white"/>
<path d="M390.21 371.95C385.36 371.98 380.51 372 375.67 372.03C368.57 371.76 365.06 371.19 365.05 370.31C364.16 370.31 363.26 370.31 362.36 370.31C362.36 370.93 362.36 371.55 362.36 372.17C362.36 373.38 362.36 374.6 362.35 375.81C339.65 376.02 316.95 376.27 294.25 376.52C285.31 376.06 280.89 374.88 280.88 372.9C279.99 372.9 279.09 372.9 278.19 372.89C278.19 374.16 278.19 375.43 278.19 376.7C278.19 378.1 278.19 379.49 278.19 380.89C278.18 390.92 271.73 404.16 261.88 408.58C259.69 407.94 258.6 407.11 258.59 406.07C257.7 406.07 256.8 406.07 255.9 406.06C255.9 407.41 255.9 408.75 255.9 410.1C255.9 429.39 255.9 448.67 255.9 467.96C255.9 469.36 255.9 470.75 255.9 472.15C256.8 472.15 257.7 472.15 258.59 472.14C259.03 470.43 258.92 469.42 268.67 465.12C271.47 464.17 274.13 463.04 276.66 461.76C276.69 461.75 276.72 461.73 276.76 461.72H276.72C292.91 453.51 303.43 439.26 309.49 428.25C323.02 427.44 336.56 426.67 350.11 425.96C350.09 430.82 350.08 435.69 350.06 440.55C350 461.21 343.01 478.81 302.8 483.46C291.77 484.72 280.76 486.06 269.75 487.44C266.38 486.84 264.7 485.98 264.69 484.83C263.8 484.83 262.9 484.83 262 484.82C262 486.02 262 487.21 262 488.41C262 506.27 261.99 524.14 261.98 542C261.98 543.18 261.98 545.44 261.98 546.62C262.88 546.62 263.78 546.62 264.67 546.61C264.67 545.23 267.29 543.35 272.36 541.9C275.7 541.29 279.04 540.67 282.39 540.09C282.54 540.07 282.69 540.06 282.84 540.04L282.47 540.08C289.1 538.91 295.74 537.78 302.38 536.68C380.36 523.62 395.9 481.84 396.04 437.82C396.07 431.24 396.09 424.66 396.12 418.09C397.15 418.33 397.68 418.62 397.68 418.96C398.57 418.96 399.47 418.96 400.37 418.96C400.37 418.33 400.37 417.7 400.37 417.08C400.39 410.85 400.42 404.63 400.45 398.4C400.45 397.91 400.45 397.43 400.45 396.94C399.55 396.94 398.65 396.94 397.76 396.94C397.76 397.37 396.34 397.7 393.53 397.94C385.42 398.14 377.31 398.35 369.2 398.57C369.2 396.35 369.22 394.13 369.23 391.91C376.33 391.75 383.43 391.61 390.54 391.47C395.38 391.66 397.79 391.97 397.8 392.42C398.69 392.42 399.59 392.42 400.49 392.42C400.49 392.03 400.49 391.65 400.49 391.26C400.52 384.96 400.54 378.65 400.57 372.35C400.57 371.65 400.57 370.95 400.57 370.25C399.67 370.25 398.77 370.25 397.88 370.25C397.88 371.07 395.34 371.65 390.24 371.99L390.21 371.95Z" fill="white"/>
<path d="M416.44 420C415.55 420 414.65 420 413.75 419.99C413.75 421.34 413.75 422.68 413.75 424.03C413.7 437.04 413.64 450.05 413.59 463.06C413.59 463.16 413.59 463.26 413.59 463.36C413.59 463.71 413.59 464.07 413.59 464.42C413.59 465.22 413.59 466.02 413.59 466.82C414.49 466.82 415.39 466.82 416.28 466.81C416.28 465.41 418.54 464.42 423.06 463.8C426.72 463.56 430.37 463.31 434.03 463.07C434.17 463.07 434.3 463.07 434.44 463.06H434.19C459.27 461.47 484.37 460.15 509.48 459.14C509.48 460.1 509.48 461.07 509.48 462.03C509.46 467.65 505.99 470.68 494.66 471.25C474.89 472.25 455.13 473.46 435.39 474.86C430.78 474.27 428.49 473.31 428.48 471.97C427.59 471.97 426.69 471.97 425.79 471.96C425.79 473.16 425.79 474.35 425.79 475.55C425.73 490.29 425.67 505.02 425.6 519.76C425.6 520.94 425.6 523.2 425.6 524.38C426.5 524.38 427.4 524.38 428.29 524.37C428.29 522.37 433.69 520.9 444.12 519.8C459.28 518.34 474.44 517.04 489.62 515.91C543.01 512.03 557.76 486.37 557.83 452.82C557.86 441.88 557.88 430.94 557.91 420C513.91 420.66 469.93 421.87 425.99 423.58C419.62 422.97 416.46 421.79 416.45 420.02L416.44 420Z" fill="white"/>
<path d="M952.379 465.58C952.379 465.58 952.429 465.58 952.449 465.58C952.519 465.58 952.599 465.59 952.669 465.6C954.739 465.74 956.809 465.89 958.869 466.04C958.929 465.02 958.999 464 959.059 463C956.079 462.79 953.489 458.69 952.619 450.76C952.559 433.04 952.509 415.31 952.449 397.59C953.039 384.1 955.289 377.46 959.329 377.44C959.339 376.36 959.339 375.27 959.349 374.17C957.019 374.17 954.689 374.18 952.369 374.18C936.979 374.06 921.589 373.94 906.199 373.83C904.259 373.83 902.309 373.83 900.369 373.83C900.379 374.92 900.379 376.02 900.389 377.1C903.189 377.1 905.129 380.31 906.249 386.74C906.319 405.24 906.399 423.75 906.469 442.25C905.729 454.47 904.149 458.64 900.589 458.4C900.509 459.41 900.439 460.42 900.359 461.44C902.489 461.59 904.619 461.72 906.749 461.87C921.969 463 937.179 464.24 952.369 465.57L952.379 465.58Z" fill="white"/>
<path d="M770.32 600.403C770.32 592.431 771.689 585.036 774.426 578.217C777.211 571.349 781.341 565.419 786.816 560.424C792.338 555.382 799.205 551.444 807.417 548.611C815.629 545.73 825.209 544.289 836.158 544.289C840.336 544.289 844.514 544.481 848.692 544.865C852.87 545.201 856.856 545.754 860.65 546.522C864.491 547.242 868.045 548.227 871.31 549.475C874.576 550.676 877.409 552.141 879.81 553.869C882.259 555.598 884.156 557.615 885.501 559.92C886.893 562.177 887.59 564.746 887.59 567.628C887.59 568.348 887.518 569.116 887.374 569.933C887.23 570.701 887.038 571.421 886.797 572.094L857.12 576.344C857.36 575.623 857.528 574.879 857.624 574.111C857.72 573.294 857.768 572.358 857.768 571.301C857.768 570.053 857.288 568.708 856.328 567.268C855.415 565.827 854.023 564.506 852.15 563.306C850.277 562.105 847.948 561.121 845.162 560.352C842.425 559.536 839.256 559.128 835.654 559.128C830.804 559.128 826.65 559.8 823.192 561.145C819.783 562.441 816.974 564.41 814.765 567.051C812.556 569.645 810.947 572.886 809.938 576.776C808.93 580.666 808.426 585.18 808.426 590.318C810.683 589.31 813.18 588.421 815.917 587.653C818.702 586.836 821.632 586.164 824.705 585.636C827.779 585.108 830.948 584.7 834.213 584.411C837.479 584.123 840.744 583.979 844.01 583.979C847.9 583.979 851.789 584.243 855.679 584.772C859.617 585.252 863.363 586.044 866.916 587.149C870.518 588.253 873.88 589.646 877.001 591.327C880.122 593.007 882.812 595.024 885.069 597.377C887.374 599.682 889.175 602.348 890.471 605.373C891.816 608.398 892.488 611.784 892.488 615.53C892.488 620.092 891.744 624.198 890.255 627.847C888.766 631.497 886.677 634.714 883.988 637.5C881.347 640.285 878.178 642.662 874.48 644.631C870.83 646.6 866.82 648.232 862.45 649.529C858.128 650.778 853.518 651.69 848.62 652.266C843.77 652.843 838.824 653.131 833.781 653.131C791.474 653.131 770.32 635.555 770.32 600.403ZM808.714 605.013C808.858 609.959 809.458 614.545 810.515 618.771C811.571 622.949 813.108 626.575 815.125 629.648C817.19 632.673 819.759 635.05 822.832 636.779C825.906 638.508 829.555 639.372 833.781 639.372C837.287 639.372 840.336 638.868 842.929 637.86C845.571 636.803 847.732 635.363 849.412 633.538C851.093 631.713 852.342 629.528 853.158 626.983C854.023 624.39 854.455 621.532 854.455 618.411C854.455 615.482 853.974 612.864 853.014 610.559C852.102 608.206 850.757 606.237 848.98 604.653C847.203 603.02 845.018 601.771 842.425 600.907C839.88 600.042 836.999 599.61 833.781 599.61C829.94 599.61 825.81 600.091 821.392 601.051C816.974 602.011 812.748 603.332 808.714 605.013Z" fill="white"/>
<path d="M650.374 650.321C649.27 647.68 648.333 644.967 647.565 642.182C646.845 639.396 646.484 636.323 646.484 632.962C646.484 628.928 647.061 625.35 648.213 622.229C649.366 619.107 650.926 616.346 652.895 613.945C654.912 611.544 657.265 609.479 659.955 607.75C662.692 605.973 665.621 604.436 668.743 603.14C671.912 601.843 675.201 600.739 678.611 599.826C682.069 598.866 685.502 598.002 688.912 597.233C694.578 595.985 699.597 594.832 703.967 593.776C708.337 592.719 712.01 591.471 714.988 590.03C717.965 588.589 720.222 586.86 721.759 584.844C723.295 582.779 724.064 580.137 724.064 576.92C724.064 573.991 723.512 571.445 722.407 569.284C721.303 567.123 719.766 565.347 717.797 563.954C715.876 562.513 713.619 561.457 711.026 560.785C708.433 560.064 705.623 559.704 702.598 559.704C699.044 559.704 695.923 560.112 693.234 560.929C690.592 561.745 688.359 563.09 686.535 564.962C684.758 566.787 683.413 569.188 682.501 572.166C681.588 575.095 681.132 578.721 681.132 583.043H649.078C648.885 581.89 648.741 580.642 648.645 579.297C648.549 577.952 648.501 576.752 648.501 575.695C648.501 571.517 649.198 567.844 650.59 564.674C652.031 561.457 654 558.696 656.497 556.391C659.042 554.038 662.043 552.093 665.501 550.556C669.007 549.019 672.848 547.795 677.026 546.882C681.204 545.922 685.646 545.25 690.352 544.865C695.059 544.481 699.885 544.289 704.831 544.289C714.772 544.289 723.367 545.033 730.619 546.522C737.918 548.011 743.921 550.172 748.627 553.005C753.333 555.838 756.815 559.32 759.072 563.45C761.377 567.532 762.529 572.214 762.529 577.496C762.529 581.098 761.857 584.315 760.512 587.149C759.216 589.982 757.439 592.527 755.182 594.784C752.925 597.041 750.26 599.034 747.186 600.763C744.113 602.492 740.799 604.028 737.246 605.373C733.74 606.718 730.091 607.894 726.297 608.903C722.503 609.863 718.757 610.727 715.06 611.496C710.45 612.456 706.176 613.465 702.238 614.521C698.3 615.578 694.89 616.754 692.009 618.051C689.176 619.347 686.943 620.836 685.31 622.517C683.677 624.149 682.861 626.07 682.861 628.279C682.861 628.76 682.885 629.264 682.933 629.792C682.981 630.32 683.053 630.825 683.149 631.305H730.907L760.08 605.733V650.321H650.374Z" fill="white"/>
<path d="M513.102 598.674C513.102 592.335 513.942 586.596 515.623 581.458C517.351 576.32 519.705 571.734 522.682 567.7C525.707 563.666 529.237 560.184 533.271 557.255C537.305 554.326 541.627 551.901 546.237 549.98C550.895 548.059 555.745 546.642 560.787 545.73C565.878 544.769 570.92 544.289 575.914 544.289C580.909 544.289 585.927 544.769 590.969 545.73C596.059 546.642 600.934 548.059 605.592 549.98C610.25 551.901 614.596 554.326 618.63 557.255C622.712 560.184 626.241 563.666 629.219 567.7C632.244 571.734 634.597 576.32 636.278 581.458C638.007 586.596 638.871 592.335 638.871 598.674C638.871 605.013 638.007 610.751 636.278 615.89C634.597 621.028 632.244 625.614 629.219 629.648C626.241 633.682 622.712 637.187 618.63 640.165C614.596 643.094 610.25 645.519 605.592 647.44C600.934 649.361 596.059 650.778 590.969 651.69C585.927 652.65 580.909 653.131 575.914 653.131C570.92 653.131 565.878 652.675 560.787 651.762C555.745 650.85 550.895 649.457 546.237 647.584C541.627 645.711 537.305 643.31 533.271 640.381C529.237 637.452 525.707 633.97 522.682 629.936C519.705 625.902 517.351 621.292 515.623 616.106C513.942 610.919 513.102 605.109 513.102 598.674ZM554.016 598.674C554.016 604.34 554.448 609.599 555.313 614.449C556.225 619.251 557.57 623.429 559.347 626.983C561.171 630.536 563.453 633.322 566.19 635.339C568.927 637.356 572.169 638.364 575.914 638.364C579.66 638.364 582.901 637.332 585.639 635.267C588.424 633.202 590.729 630.392 592.554 626.839C594.379 623.285 595.723 619.107 596.588 614.305C597.5 609.455 597.956 604.244 597.956 598.674C597.956 593.055 597.524 587.797 596.66 582.899C595.843 577.952 594.547 573.678 592.77 570.077C590.993 566.427 588.712 563.57 585.927 561.505C583.142 559.392 579.804 558.335 575.914 558.335C572.169 558.335 568.927 559.392 566.19 561.505C563.453 563.57 561.171 566.427 559.347 570.077C557.57 573.678 556.225 577.952 555.313 582.899C554.448 587.797 554.016 593.055 554.016 598.674Z" fill="white"/>
<path d="M393.694 650.321C392.59 647.68 391.654 644.967 390.885 642.182C390.165 639.396 389.805 636.323 389.805 632.962C389.805 628.928 390.381 625.35 391.533 622.229C392.686 619.107 394.247 616.346 396.216 613.945C398.233 611.544 400.586 609.479 403.275 607.75C406.012 605.973 408.941 604.436 412.063 603.14C415.232 601.843 418.522 600.739 421.931 599.826C425.389 598.866 428.822 598.002 432.232 597.233C437.899 595.985 442.917 594.832 447.287 593.776C451.657 592.719 455.331 591.471 458.308 590.03C461.285 588.589 463.542 586.86 465.079 584.844C466.616 582.779 467.384 580.137 467.384 576.92C467.384 573.991 466.832 571.445 465.727 569.284C464.623 567.123 463.086 565.347 461.117 563.954C459.196 562.513 456.939 561.457 454.346 560.785C451.753 560.064 448.944 559.704 445.918 559.704C442.365 559.704 439.243 560.112 436.554 560.929C433.913 561.745 431.68 563.09 429.855 564.962C428.078 566.787 426.734 569.188 425.821 572.166C424.909 575.095 424.452 578.721 424.452 583.043H392.398C392.206 581.89 392.062 580.642 391.966 579.297C391.87 577.952 391.822 576.752 391.822 575.695C391.822 571.517 392.518 567.844 393.911 564.674C395.351 561.457 397.32 558.696 399.817 556.391C402.362 554.038 405.364 552.093 408.821 550.556C412.327 549.019 416.169 547.795 420.347 546.882C424.525 545.922 428.967 545.25 433.673 544.865C438.379 544.481 443.205 544.289 448.151 544.289C458.092 544.289 466.688 545.033 473.939 546.522C481.238 548.011 487.241 550.172 491.947 553.005C496.653 555.838 500.135 559.32 502.392 563.45C504.697 567.532 505.85 572.214 505.85 577.496C505.85 581.098 505.177 584.315 503.833 587.149C502.536 589.982 500.759 592.527 498.502 594.784C496.245 597.041 493.58 599.034 490.507 600.763C487.433 602.492 484.12 604.028 480.566 605.373C477.06 606.718 473.411 607.894 469.617 608.903C465.823 609.863 462.078 610.727 458.38 611.496C453.77 612.456 449.496 613.465 445.558 614.521C441.62 615.578 438.211 616.754 435.329 618.051C432.496 619.347 430.263 620.836 428.63 622.517C426.998 624.149 426.181 626.07 426.181 628.279C426.181 628.76 426.205 629.264 426.253 629.792C426.301 630.32 426.373 630.825 426.469 631.305H474.227L503.401 605.733V650.321H393.694Z" fill="white"/>
</svg>
