<svg width="1920" height="1080" viewBox="0 0 1920 1080" fill="none" xmlns="http://www.w3.org/2000/svg">
<g clip-path="url(#clip0_804_41)">
<path d="M1417.39 363.57C1416.79 363.273 1411.44 360 1404 360C1396.56 360 1391.21 363.273 1390.61 363.57L1320.4 538.512C1320.4 538.512 1362.94 530.182 1404 530.182C1445.06 530.182 1487.6 538.512 1487.6 538.512L1417.39 363.57ZM1367.7 501.917L1403.4 406.413H1404.59L1440.3 501.917C1434.94 501.322 1419.77 499.537 1404 499.537C1388.23 499.537 1373.06 501.322 1367.7 501.917Z" fill="black"/>
<path d="M493.882 362.678C513.816 362.678 528.394 368.331 538.51 379.339C548.625 390.347 553.386 403.438 553.386 419.207C553.386 434.975 548.328 448.364 537.617 458.777C527.204 469.19 511.733 474.546 490.906 474.546H462.94V535.537H431.402V362.678H493.882ZM492.097 445.389C510.84 445.389 520.956 433.488 520.956 418.612C520.956 403.736 511.138 392.43 494.477 392.43H463.237V445.389H492.097Z" fill="black"/>
<path d="M746.178 535.835L695.005 465.323L673.286 491.802V535.835H641.451V362.678H673.286V447.471L742.013 362.678H780.691L716.129 441.818L785.451 535.537L746.178 535.835Z" fill="black"/>
<path d="M869.055 505.488L888.096 483.471C899.104 500.132 913.98 508.463 933.022 508.463C948.79 508.463 959.501 499.835 959.501 488.231C959.501 480.496 954.146 473.95 943.435 468.595C941.055 467.405 935.402 465.025 926.476 461.455C917.253 457.587 910.41 454.314 906.245 451.934C888.096 441.521 879.17 427.24 879.17 409.388C879.17 395.107 884.526 383.504 895.236 373.983C905.352 364.76 919.336 360 936.294 360C958.906 360 977.352 368.033 991.633 383.802L973.782 406.711C964.261 395.702 949.088 389.752 936.592 389.752C922.608 389.752 913.088 396.893 913.088 407.901C913.088 415.041 917.848 421.289 927.369 426.05L945.517 434.38C955.038 438.248 961.881 441.521 966.046 443.901C985.088 453.421 994.608 467.702 994.608 486.149C994.608 501.322 988.658 514.116 977.352 523.636C966.046 533.157 950.873 538.215 932.724 538.215C906.84 538.512 883.038 526.909 869.055 505.488Z" fill="black"/>
<path d="M1093.68 535.835V362.678H1125.81V432.595H1201.68V362.678H1233.81V535.537H1201.68V463.537H1125.81V535.537L1093.68 535.835Z" fill="black"/>
<path d="M534.641 660.199H514.707V646.81H568.261V660.199H548.624V715.835H534.641V660.199Z" fill="#677070"/>
<path d="M606.346 715.835V646.81H653.056V659.604H620.032V674.48H650.379V687.273H620.032V702.744H653.056V715.538L606.346 715.835Z" fill="#677070"/>
<path d="M693.815 707.207C686.972 700.661 683.699 692.033 683.699 681.62C683.699 671.207 687.269 662.579 694.112 655.736C701.253 648.893 709.584 645.62 719.402 645.62C731.898 645.62 742.906 651.273 749.154 659.901L739.931 669.124C734.575 662.579 728.03 659.009 720.294 659.009C714.046 659.009 708.691 661.091 704.526 665.554C700.36 669.719 698.278 675.075 698.278 681.62C698.278 688.166 700.36 693.223 704.526 697.389C708.691 701.554 714.046 703.637 720.294 703.637C728.327 703.637 735.17 700.364 740.526 693.521L750.046 702.149C743.798 710.777 732.493 716.728 719.699 716.728C708.988 717.025 700.658 713.752 693.815 707.207Z" fill="#677070"/>
<path d="M778.908 715.835V646.81H792.594V674.48H821.454V646.81H835.14V715.835H821.454V687.571H792.594V715.835H778.908Z" fill="#677070"/>
<path d="M915.467 646.81H929.153V715.835H919.633L883.93 673.587V715.835H870.244V646.81H879.17L915.467 689.653V646.81Z" fill="#677070"/>
<path d="M966.64 706.909C959.797 700.066 956.227 691.736 956.227 681.62C956.227 671.504 959.797 663.174 966.64 656.033C973.78 648.893 982.111 645.62 992.227 645.62C1002.34 645.62 1010.67 649.19 1017.81 656.033C1024.95 663.174 1028.23 671.504 1028.23 681.323C1028.23 691.141 1024.66 699.769 1017.81 706.612C1010.97 713.455 1002.34 717.025 992.227 717.025C982.111 717.025 973.483 713.752 966.64 706.909ZM1007.7 665.554C1003.53 661.389 998.475 659.306 992.524 659.306C986.574 659.306 981.516 661.389 977.351 665.554C973.185 669.719 971.103 675.075 971.103 681.323C971.103 687.571 973.185 692.926 977.351 697.091C981.516 701.256 986.574 703.339 992.822 703.339C998.772 703.339 1004.13 701.256 1008.29 697.091C1012.46 692.926 1014.54 687.571 1014.54 681.323C1013.95 675.075 1011.86 669.719 1007.7 665.554Z" fill="#677070"/>
<path d="M1056.2 715.835V646.81H1070.18V702.744H1105.29V716.133L1056.2 715.835Z" fill="#677070"/>
<path d="M1136.52 706.909C1129.68 700.066 1126.11 691.736 1126.11 681.62C1126.11 671.504 1129.68 663.174 1136.52 656.033C1143.67 648.893 1152 645.62 1162.11 645.62C1172.23 645.62 1180.56 649.19 1187.7 656.033C1194.84 663.174 1198.11 671.504 1198.11 681.323C1198.11 691.141 1194.54 699.769 1187.7 706.612C1180.86 713.455 1172.23 717.025 1162.11 717.025C1152 717.025 1143.67 713.752 1136.52 706.909ZM1177.58 665.554C1173.42 661.389 1168.36 659.306 1162.41 659.306C1156.46 659.306 1151.4 661.389 1147.24 665.554C1143.07 669.719 1140.99 675.075 1140.99 681.323C1140.99 687.571 1143.07 692.926 1147.24 697.091C1151.4 701.256 1156.46 703.339 1162.71 703.339C1168.95 703.339 1174.01 701.256 1178.18 697.091C1182.34 692.926 1184.43 687.571 1184.43 681.323C1183.83 675.075 1181.75 669.719 1177.58 665.554Z" fill="#677070"/>
<path d="M1231.73 706.909C1224.89 700.066 1221.61 691.736 1221.61 681.323C1221.61 670.909 1225.18 662.281 1232.03 655.736C1239.17 648.893 1247.8 645.62 1258.21 645.62C1269.51 645.62 1279.93 650.083 1286.18 656.926L1277.25 666.744C1272.19 661.686 1265.94 659.009 1258.51 659.009C1251.96 659.009 1246.61 661.091 1242.44 665.256C1238.27 669.422 1236.19 674.777 1236.19 681.323C1236.19 687.868 1238.27 692.926 1242.44 697.091C1246.61 701.256 1251.96 703.637 1258.51 703.637C1265.65 703.637 1272.49 700.661 1276.95 696.199V686.678H1257.91V674.48H1289.45V703.042C1280.52 712.265 1270.11 716.728 1257.91 716.728C1246.9 717.025 1238.27 713.455 1231.73 706.909Z" fill="#677070"/>
<path d="M1374.54 646.81L1350.74 692.033V715.835H1337.06V692.033L1313.25 646.81H1329.32L1343.9 677.157L1358.77 646.81H1374.54Z" fill="#677070"/>
</g>
<defs>
<clipPath id="clip0_804_41">
<rect width="1056.2" height="360" fill="white" transform="translate(431.402 360)"/>
</clipPath>
</defs>
</svg>
