<svg width="1920" height="1080" viewBox="0 0 1920 1080" fill="none" xmlns="http://www.w3.org/2000/svg">
<path d="M1302.83 639.325C1291.12 639.325 1280.59 637.053 1271.26 632.511C1262.17 627.968 1254.88 621.869 1249.38 614.217C1244.11 606.327 1241.48 597.24 1241.48 586.958C1241.48 573.567 1245.79 562.687 1254.4 554.317C1263.01 545.949 1275.33 540.21 1291.35 537.101L1333.33 528.493C1341.7 526.819 1347.44 524.189 1350.55 520.602C1353.66 517.015 1355.22 511.755 1355.22 504.82L1359.52 546.786L1299.25 559.698C1291.12 561.372 1284.78 564.361 1280.23 568.666C1275.93 572.97 1273.77 578.947 1273.77 586.6C1273.77 594.49 1276.76 600.827 1282.74 605.61C1288.96 610.392 1297.33 612.784 1307.86 612.784C1316.47 612.784 1324.36 610.871 1331.54 607.044C1338.95 603.218 1344.69 597.957 1348.76 591.263C1353.06 584.328 1355.22 576.436 1355.22 567.59V504.82C1355.22 496.211 1352.11 489.517 1345.89 484.734C1339.91 479.712 1331.66 477.201 1321.13 477.201C1307.74 477.201 1297.45 480.549 1290.28 487.245C1283.1 493.939 1278.92 503.385 1277.72 515.58L1246.15 511.277C1247.34 498.603 1251.17 487.723 1257.63 478.636C1264.09 469.311 1272.7 462.137 1283.46 457.115C1294.22 452.095 1307.02 449.584 1321.85 449.584C1342.9 449.584 1359.04 454.963 1370.29 465.724C1381.53 476.484 1387.15 490.354 1387.15 507.331V633.945H1355.93V610.631C1352.83 618.522 1346.49 625.337 1336.92 631.076C1327.59 636.575 1316.23 639.325 1302.83 639.325Z" fill="black"/>
<path d="M987.092 633.945V454.963H1018.31V475.049C1020.7 468.115 1025.96 462.137 1034.09 457.115C1042.22 452.095 1051.67 449.584 1062.44 449.584C1072.96 449.584 1082.65 451.856 1091.5 456.398C1100.35 460.941 1106.09 467.757 1108.72 476.843C1111.83 468.474 1117.57 461.898 1125.94 457.115C1134.55 452.095 1144.12 449.584 1154.64 449.584C1172.82 449.584 1186.69 454.843 1196.26 465.365C1205.83 475.886 1210.61 491.191 1210.61 511.277V633.945H1178.68V515.58C1178.68 503.625 1176.05 494.657 1170.79 488.68C1165.76 482.462 1158.35 479.354 1148.54 479.354C1137.78 479.354 1129.41 483.18 1123.43 490.832C1117.69 498.244 1114.82 509.125 1114.82 523.472V633.945H1082.89V515.58C1082.89 503.625 1080.26 494.657 1074.99 488.68C1069.97 482.462 1062.56 479.354 1052.75 479.354C1041.99 479.354 1033.61 483.18 1027.63 490.832C1021.89 498.244 1019.02 509.125 1019.02 523.472V633.945H987.092Z" fill="black"/>
<path d="M864.998 698.507C842.754 698.507 824.695 693.367 810.821 683.084C796.949 672.803 788.098 658.455 784.273 640.043L815.486 633.229C818.117 644.945 823.738 654.031 832.348 660.487C840.959 667.183 851.842 670.531 864.998 670.531C880.784 670.531 892.623 666.466 900.517 658.335C908.648 650.445 912.715 638.608 912.715 622.826V594.49C909.127 603.338 902.43 610.512 892.623 616.011C883.056 621.511 872.292 624.261 860.334 624.261C844.548 624.261 830.674 620.674 818.715 613.5C806.755 606.088 797.427 595.805 790.73 582.654C784.033 569.503 780.685 554.317 780.685 537.101C780.685 519.645 784.033 504.342 790.73 491.191C797.427 478.038 806.635 467.876 818.356 460.702C830.315 453.289 844.308 449.584 860.334 449.584C872.292 449.584 883.176 452.334 892.982 457.833C903.028 463.094 909.844 469.67 913.432 477.56V454.963H944.647V622.826C944.647 638.608 941.537 652.119 935.318 663.357C929.099 674.834 920.01 683.563 908.05 689.541C896.331 695.518 881.98 698.507 864.998 698.507ZM864.28 595.925C879.588 595.925 891.786 590.545 900.876 579.784C910.203 569.024 914.868 554.796 914.868 537.101C914.868 519.167 910.203 504.82 900.876 494.059C891.547 483.299 879.349 477.919 864.28 477.919C848.971 477.919 836.654 483.299 827.325 494.059C818.237 504.82 813.692 519.167 813.692 537.101C813.692 554.796 818.356 569.024 827.684 579.784C837.013 590.545 849.211 595.925 864.28 595.925Z" fill="black"/>
<path d="M716.245 633.944V454.963H748.176V633.944H716.245ZM715.886 432.007V381.075H748.535V432.007H715.886Z" fill="black"/>
<path d="M532.852 633.944V381.075H566.576V633.944H532.852ZM539.669 527.058V496.57H677.081V527.058H539.669ZM539.669 411.921V381.075H690.355V411.921H539.669Z" fill="black"/>
</svg>
