<svg width="1920" height="1080" viewBox="0 0 1920 1080" fill="none" xmlns="http://www.w3.org/2000/svg">
<mask id="mask0_446_39" style="mask-type:luminance" maskUnits="userSpaceOnUse" x="352" y="364" width="1216" height="351">
<path d="M1568 364.052H352V714.052H1568V364.052Z" fill="white"/>
</mask>
<g mask="url(#mask0_446_39)">
<mask id="mask1_446_39" style="mask-type:luminance" maskUnits="userSpaceOnUse" x="352" y="364" width="335" height="350">
<path d="M687 364.052H352V714H687V364.052Z" fill="white"/>
</mask>
<g mask="url(#mask1_446_39)">
<path fill-rule="evenodd" clip-rule="evenodd" d="M566.701 364.849L373.056 379.109C357.442 380.461 352 390.648 352 402.86V614.662C352 624.178 355.392 632.311 363.549 643.182L409.069 702.242C416.546 711.753 423.342 713.787 437.619 713.106L662.498 699.527C681.518 698.176 686.958 689.344 686.958 674.41V436.127C686.958 428.408 683.904 426.178 674.899 419.604C674.404 419.243 673.891 418.868 673.359 418.478L611.545 375.033C596.599 364.175 590.481 362.809 566.701 364.849ZM442.718 432.219C424.358 433.459 420.186 433.74 409.76 425.27L383.246 404.226C380.542 401.505 381.898 398.11 388.687 397.437L574.855 383.859C590.478 382.498 598.629 387.938 604.747 392.688L636.678 415.771C638.038 416.447 641.429 420.515 637.351 420.515L445.088 432.06C444.273 432.114 443.483 432.167 442.718 432.219ZM421.303 672.37V470.076C421.303 461.253 424.021 457.177 432.169 456.492L652.977 443.598C660.466 442.919 663.857 447.675 663.857 456.492V657.428C663.857 666.26 662.495 673.738 650.261 674.41L438.964 686.637C426.736 687.31 421.303 683.242 421.303 672.37ZM629.894 480.928C631.249 487.044 629.894 493.154 623.768 493.841L613.586 495.869V645.216C604.747 649.967 596.596 652.684 589.804 652.684C578.929 652.684 576.206 649.286 568.06 639.108L501.467 534.565V635.714L522.539 640.469C522.539 640.469 522.539 652.684 505.538 652.684L458.67 655.401C457.308 652.684 458.67 645.9 463.424 644.54L475.654 641.151V507.414L458.672 506.053C457.311 499.938 460.703 491.12 470.221 490.435L520.501 487.046L589.804 592.95V499.264L572.135 497.236C570.778 489.759 576.206 484.33 583.001 483.657L629.894 480.928Z" fill="black"/>
</g>
<path d="M946.949 445.962V635.053H916.757L827.29 505.699H825.72V635.053H791.743V445.962H822.212L911.494 575.316H913.249V445.962H946.949ZM1036.95 637.823C1023.1 637.823 1011.1 634.776 1000.94 628.682C990.784 622.589 982.936 614.063 977.396 603.107C971.857 592.151 969.087 579.348 969.087 564.698C969.087 550.048 971.857 537.214 977.396 526.196C982.936 515.178 990.784 506.623 1000.94 500.529C1011.1 494.435 1023.1 491.388 1036.95 491.388C1050.74 491.388 1062.71 494.435 1072.87 500.529C1083.02 506.623 1090.87 515.178 1096.41 526.196C1102.01 537.214 1104.81 550.048 1104.81 564.698C1104.81 579.348 1102.01 592.151 1096.41 603.107C1090.87 614.063 1083.02 622.589 1072.87 628.682C1062.71 634.776 1050.74 637.823 1036.95 637.823ZM1037.04 611.232C1044.67 611.232 1051.01 609.17 1056.06 605.046C1061.11 600.86 1064.89 595.259 1067.42 588.242C1069.94 581.163 1071.2 573.285 1071.2 564.606C1071.2 555.927 1069.94 548.048 1067.42 540.969C1064.89 533.891 1061.11 528.258 1056.06 524.073C1051.01 519.826 1044.67 517.702 1037.04 517.702C1029.35 517.702 1022.95 519.826 1017.84 524.073C1012.73 528.258 1008.91 533.891 1006.39 540.969C1003.93 548.048 1002.7 555.927 1002.7 564.606C1002.7 573.285 1003.93 581.163 1006.39 588.242C1008.91 595.259 1012.73 600.86 1017.84 605.046C1022.95 609.17 1029.35 611.232 1037.04 611.232ZM1195.85 493.235V518.902H1114.6V493.235H1195.85ZM1134.73 459.257H1167.87V592.489C1167.87 596.982 1168.55 600.429 1169.91 602.83C1171.32 605.231 1173.17 606.862 1175.45 607.723C1177.72 608.585 1180.28 609.016 1183.11 609.016C1185.2 609.016 1187.11 608.862 1188.83 608.554C1190.56 608.247 1191.91 607.97 1192.9 607.723L1198.44 633.668C1196.65 634.284 1194.13 634.961 1190.86 635.699C1187.6 636.438 1183.6 636.869 1178.86 636.992C1170.55 637.238 1163.04 635.976 1156.33 633.206C1149.69 630.375 1144.39 626.035 1140.45 620.188C1136.57 614.279 1134.67 606.862 1134.73 597.937V459.257ZM1216.19 635.053V493.235H1249.43V635.053H1216.19ZM1232.9 473.015C1227.61 473.015 1223.08 471.26 1219.33 467.752C1215.57 464.182 1213.69 459.934 1213.69 455.01C1213.69 450.024 1215.57 445.777 1219.33 442.268C1223.14 438.698 1227.67 436.913 1232.9 436.913C1238.19 436.913 1242.72 438.698 1246.47 442.268C1250.29 445.777 1252.2 450.024 1252.2 455.01C1252.2 459.934 1250.29 464.182 1246.47 467.752C1242.72 471.26 1238.19 473.015 1232.9 473.015ZM1337.79 637.823C1323.94 637.823 1311.94 634.776 1301.78 628.682C1291.62 622.589 1283.77 614.063 1278.24 603.107C1272.7 592.151 1269.93 579.348 1269.93 564.698C1269.93 550.048 1272.7 537.214 1278.24 526.196C1283.77 515.178 1291.62 506.623 1301.78 500.529C1311.94 494.435 1323.94 491.388 1337.79 491.388C1351.58 491.388 1363.55 494.435 1373.7 500.529C1383.86 506.623 1391.71 515.178 1397.25 526.196C1402.85 537.214 1405.65 550.048 1405.65 564.698C1405.65 579.348 1402.85 592.151 1397.25 603.107C1391.71 614.063 1383.86 622.589 1373.7 628.682C1363.55 634.776 1351.58 637.823 1337.79 637.823ZM1337.88 611.232C1345.51 611.232 1351.85 609.17 1356.9 605.046C1361.95 600.86 1365.73 595.259 1368.26 588.242C1370.78 581.163 1372.04 573.285 1372.04 564.606C1372.04 555.927 1370.78 548.048 1368.26 540.969C1365.73 533.891 1361.95 528.258 1356.9 524.073C1351.85 519.826 1345.51 517.702 1337.88 517.702C1330.19 517.702 1323.78 519.826 1318.68 524.073C1313.57 528.258 1309.75 533.891 1307.23 540.969C1304.76 548.048 1303.53 555.927 1303.53 564.606C1303.53 573.285 1304.76 581.163 1307.23 588.242C1309.75 595.259 1313.57 600.86 1318.68 605.046C1323.78 609.17 1330.19 611.232 1337.88 611.232ZM1459.29 551.864V635.053H1426.06V493.235H1457.82V517.241H1459.48C1462.74 509.362 1467.94 503.083 1475.08 498.405C1482.28 493.727 1491.18 491.388 1501.77 491.388C1511.49 491.388 1519.99 493.481 1527.25 497.667C1534.57 501.852 1540.24 507.915 1544.24 515.856C1548.3 523.796 1550.33 533.429 1550.33 544.755V635.053H1517.19V549.833C1517.19 540.354 1514.72 532.937 1509.8 527.581C1504.87 522.165 1498.07 519.456 1489.39 519.456C1483.55 519.456 1478.35 520.749 1473.79 523.334C1469.24 525.858 1465.67 529.551 1463.08 534.414C1460.56 539.215 1459.29 545.032 1459.29 551.864Z" fill="black"/>
</g>
</svg>
