<svg width="1920" height="1080" viewBox="0 0 1920 1080" fill="none" xmlns="http://www.w3.org/2000/svg">
<g clip-path="url(#clip0_774_143)">
<path d="M1332.56 590.116H1269.15C1265.05 590.116 1261.73 586.795 1261.73 582.704V367.413C1261.73 363.322 1265.05 360 1269.15 360H1332.56C1336.65 360 1339.98 363.322 1339.98 367.413V582.704C1339.98 586.795 1336.65 590.116 1332.56 590.116Z" fill="black"/>
<path d="M948.246 590.116H884.839C880.743 590.116 877.418 586.795 877.418 582.704V367.413C877.418 363.322 880.743 360 884.839 360H948.246C952.342 360 955.667 363.322 955.667 367.413V582.704C955.667 586.795 952.342 590.116 948.246 590.116Z" fill="black"/>
<path d="M1221.97 360H1155.64C1150.87 360 1146.41 362.268 1143.62 366.116L1108.7 414.177L1073.78 366.116C1071 362.268 1066.54 360 1061.78 360H995.45C989.388 360 985.88 366.866 989.448 371.767L1064.47 475.058L989.448 578.349C985.88 583.251 989.388 590.116 995.45 590.116H1061.78C1066.54 590.116 1071 587.848 1073.8 584L1108.72 535.939L1143.64 584C1146.43 587.848 1150.89 590.116 1155.66 590.116H1221.99C1228.05 590.116 1231.56 583.251 1227.99 578.349L1152.94 475.058L1227.99 371.767C1231.56 366.866 1228.05 360 1221.99 360" fill="black"/>
<path d="M742.94 365.732L701.393 419.159L659.825 365.732C657.026 362.127 652.687 360 648.104 360H586.421C582.325 360 579 363.322 579 367.413V582.704C579 586.795 582.325 590.116 586.421 590.116H647.962C652.058 590.116 655.384 586.795 655.384 582.704V472.324L695.614 521.985C698.594 525.651 704.191 525.651 707.151 521.985L747.381 472.324V582.704C747.381 586.795 750.707 590.116 754.803 590.116H818.209C822.305 590.116 825.631 586.795 825.631 582.704V367.413C825.631 363.322 822.305 360 818.209 360H754.661C750.078 360 745.739 362.127 742.94 365.732Z" fill="black"/>
<path d="M702.955 712.588V649.256C702.955 645.165 706.281 641.843 710.377 641.843H925.922C930.018 641.843 933.344 645.165 933.344 649.256V712.588C933.344 716.679 930.018 720 925.922 720H710.377C706.281 720 702.955 716.679 702.955 712.588Z" fill="#E5004D"/>
<path d="M985.658 712.588V649.256C985.658 645.165 988.984 641.843 993.08 641.843H1208.63C1212.72 641.843 1216.05 645.165 1216.05 649.256V712.588C1216.05 716.679 1212.72 720 1208.63 720H993.08C988.984 720 985.658 716.679 985.658 712.588Z" fill="#F5A000"/>
</g>
<defs>
<clipPath id="clip0_774_143">
<rect width="761" height="360" fill="white" transform="translate(579 360)"/>
</clipPath>
</defs>
</svg>
