<svg width="1920" height="1080" viewBox="0 0 1920 1080" fill="none" xmlns="http://www.w3.org/2000/svg">
<g clip-path="url(#clip0_513_179)">
<path d="M903.277 479.97C918.929 479.85 933.989 485.94 945.158 496.906C956.326 507.872 962.691 522.819 962.857 538.47V540C963.048 555.73 956.983 570.892 945.995 582.149C935.007 593.407 919.997 599.839 904.267 600.03C888.537 600.221 873.376 594.155 862.118 583.168C850.86 572.18 844.428 557.17 844.237 541.44V540C843.997 532.333 845.272 524.694 847.989 517.521C850.706 510.347 854.811 503.78 860.069 498.195C865.328 492.611 871.637 488.118 878.634 484.976C885.631 481.833 893.18 480.101 900.847 479.88L903.277 479.97ZM903.277 582.48C913.781 582.291 923.783 577.954 931.101 570.417C938.418 562.88 942.458 552.754 942.337 542.25C942.29 541.591 942.29 540.929 942.337 540.27C943.02 529.899 939.56 519.681 932.717 511.858C925.874 504.034 916.207 499.246 905.837 498.543C895.467 497.839 885.242 501.279 877.406 508.106C869.569 514.934 864.761 524.592 864.037 534.96C863.947 536.729 863.947 538.501 864.037 540.27C863.396 550.781 866.949 561.117 873.917 569.012C880.885 576.908 890.698 581.719 901.207 582.39L903.277 582.48ZM979.597 598.68V481.68H1015.6C1047.1 481.68 1078.6 495.09 1078.6 539.37C1078.6 583.65 1047.01 598.5 1015.6 598.5L979.597 598.68ZM999.397 500.13V581.13H1012.36C1037.11 581.13 1058.8 573.03 1058.8 539.91C1058.8 508.14 1037.11 500.49 1012 500.49L999.397 500.13ZM1288.12 599.13L1230.07 515.43V599.13H1210.27V482.13H1230.07L1288.12 566.1V481.95H1308.01V598.95L1288.12 599.13ZM1365.16 548.55C1343.83 544.95 1330.96 533.07 1330.96 514.08C1330.96 493.29 1349.95 480.6 1372.18 480.6C1380.29 480.427 1388.35 482 1395.8 485.215C1403.26 488.429 1409.93 493.209 1415.38 499.23L1401.61 513.9C1398.07 509.201 1393.51 505.372 1388.27 502.705C1383.03 500.038 1377.25 498.603 1371.37 498.51C1356.97 498.51 1350.94 506.52 1350.94 513.54C1350.94 520.56 1355.98 526.95 1369.48 529.2L1381.18 531.18C1406.11 535.5 1417.72 548.28 1417.72 567.18C1417.72 586.08 1401.16 601.38 1372.72 601.38C1363.76 601.552 1354.89 599.613 1346.82 595.72C1338.75 591.827 1331.72 586.089 1326.28 578.97L1339.78 565.29C1343.66 571.094 1348.96 575.8 1355.19 578.953C1361.42 582.106 1368.35 583.6 1375.33 583.29C1390.09 583.29 1397.56 576.36 1397.56 567.54C1397.56 558.72 1392.79 553.5 1379.56 551.16L1365.43 549L1365.16 548.55ZM1511.68 599.13V548.73H1456.78V599.13H1436.98V482.13H1456.78V530.19H1511.68V481.95H1532.2V598.95L1511.68 599.13ZM838.297 482.13H816.787L776.197 554.67L761.437 549V481.95H741.637V598.95H761.437V569.34L840.277 600.57V579.87L794.197 561.87L838.297 482.13ZM1161.4 482.13H1118.2L1085.26 599.13H1106.5L1112.8 575.64H1166.8L1173.1 599.13H1194.34L1161.31 482.13H1161.4ZM1118.2 557.28L1133.14 500.13H1147.81L1162.84 557.28H1118.2ZM1624.54 481.95H1581.34L1548.4 598.95H1569.64L1575.94 575.46H1629.94L1636.24 598.95H1657.39L1624.18 481.95H1624.54ZM1580.71 557.28L1595.2 500.13H1609.87L1624.81 557.28H1580.71ZM263.197 360V720H623.197V360H263.197ZM410.437 564.93V379.8H585.307L475.867 581.31L410.437 564.93ZM603.397 388.26V613.26L495.397 586.26L603.397 388.26ZM390.637 379.8V559.8L282.637 532.8V379.8H390.637ZM282.997 553.41L390.997 580.41V700.11H282.997V553.41ZM410.437 700.2V585.45L603.397 633.78V700.2H410.437Z" fill="black"/>
</g>
<defs>
<clipPath id="clip0_513_179">
<rect width="1394.1" height="360" fill="white" transform="translate(263.201 360)"/>
</clipPath>
</defs>
</svg>
