<svg width="1920" height="1080" viewBox="0 0 1920 1080" fill="none" xmlns="http://www.w3.org/2000/svg">
<path d="M458.711 661.636C437.303 661.636 434.33 661.04 427.789 659.848C422.437 659.252 417.68 658.06 417.085 657.464C384.38 647.332 360.594 616.339 360.594 580.578C360.594 544.817 384.38 513.824 417.085 503.692C417.68 503.692 422.437 501.904 427.789 501.308C434.33 500.712 437.303 499.52 458.711 499.52C475.361 499.52 521.743 499.52 521.743 499.52V338C521.743 338 626.402 477.467 660.891 523.957C662.675 526.341 667.432 532.301 672.784 540.645C678.731 550.181 683.488 565.082 683.488 580.578C683.488 616.935 659.702 647.332 626.996 657.464C626.402 657.464 621.644 659.252 616.293 659.848C609.751 660.444 606.778 661.636 585.371 661.636C568.126 661.636 475.361 661.636 458.711 661.636ZM521.743 540.049C499.741 540.049 481.307 557.929 481.307 580.578C481.307 603.226 499.147 621.107 521.743 621.107C544.34 621.107 562.18 603.226 562.18 580.578C562.18 557.929 544.34 540.049 521.743 540.049ZM990.921 441.111H1059.31V661.636H990.921V441.111ZM836.907 665.212C910.049 665.212 940.376 636.603 940.376 562.697V441.111H872.586V560.313C872.586 592.498 864.855 611.571 835.718 611.571C800.039 611.571 801.228 569.85 800.633 563.293C800.633 560.313 800.633 551.373 800.633 551.373H733.438V562.697C733.438 627.067 764.955 665.212 836.907 665.212ZM1477.94 444.091H1401.82L1320.36 661.636H1389.93L1400.63 625.279H1477.94L1488.64 661.636H1560L1477.94 444.091ZM1414.91 577.598L1438.69 501.904L1463.07 577.598H1414.91ZM1113.42 441.111H1214.51C1254.35 441.111 1274.57 451.243 1290.62 469.123C1310.25 490.58 1316.19 520.976 1316.19 556.737C1316.19 637.199 1265.05 661.636 1215.1 661.636H1114.01V441.111H1113.42ZM1179.42 491.176V611.571H1200.24C1244.24 611.571 1247.21 586.538 1247.21 551.969C1247.21 518.592 1242.46 491.176 1197.86 491.176H1179.42Z" fill="#231815"/>
</svg>
