<svg width="1920" height="1080" viewBox="0 0 1920 1080" fill="none" xmlns="http://www.w3.org/2000/svg">
<path d="M1546.03 634.635C1530.76 634.635 1517.16 631.564 1505.22 625.42C1493.28 619.1 1483.89 610.411 1477.05 599.353C1470.38 588.294 1467.04 575.743 1467.04 561.7C1467.04 547.481 1470.38 534.93 1477.05 524.047C1483.89 512.988 1493.28 504.387 1505.22 498.243C1517.16 491.924 1530.76 488.764 1546.03 488.764C1560.96 488.764 1573.94 491.924 1585 498.243C1596.06 504.387 1604.23 513.251 1609.49 524.837L1577.63 541.952C1573.94 535.281 1569.29 530.366 1563.68 527.207C1558.23 524.047 1552.26 522.467 1545.77 522.467C1538.75 522.467 1532.43 524.047 1526.81 527.207C1521.2 530.366 1516.72 534.842 1513.38 540.635C1510.23 546.428 1508.64 553.449 1508.64 561.7C1508.64 569.95 1510.23 576.972 1513.38 582.764C1516.72 588.557 1521.2 593.033 1526.81 596.192C1532.43 599.353 1538.75 600.933 1545.77 600.933C1552.26 600.933 1558.23 599.44 1563.68 596.456C1569.29 593.296 1573.94 588.294 1577.63 581.448L1609.49 598.826C1604.23 610.236 1596.06 619.1 1585 625.42C1573.94 631.564 1560.96 634.635 1546.03 634.635Z" fill="black"/>
<path d="M1398.37 632.53V490.871H1439.45V632.53H1398.37ZM1418.91 471.123C1411.37 471.123 1405.22 468.929 1400.48 464.54C1395.74 460.152 1393.37 454.71 1393.37 448.215C1393.37 441.72 1395.74 436.279 1400.48 431.89C1405.22 427.502 1411.37 425.308 1418.91 425.308C1426.46 425.308 1432.61 427.414 1437.34 431.627C1442.08 435.664 1444.45 440.93 1444.45 447.425C1444.45 454.271 1442.08 459.976 1437.34 464.54C1432.78 468.929 1426.64 471.123 1418.91 471.123Z" fill="black"/>
<path d="M1280.63 685.718C1267.29 685.718 1254.38 684.05 1241.92 680.714C1229.63 677.555 1219.36 672.727 1211.12 666.233L1227.44 636.743C1233.41 641.656 1240.95 645.519 1250.08 648.328C1259.39 651.312 1268.51 652.805 1277.47 652.805C1292.04 652.805 1302.57 649.556 1309.07 643.062C1315.73 636.566 1319.07 626.913 1319.07 614.099V592.771L1321.7 557.223L1321.18 521.414V490.87H1360.15V608.831C1360.15 635.162 1353.3 654.56 1339.61 667.022C1325.92 679.486 1306.26 685.718 1280.63 685.718ZM1274.31 625.684C1261.14 625.684 1249.21 622.875 1238.5 617.257C1227.97 611.465 1219.45 603.478 1212.96 593.296C1206.64 582.94 1203.48 570.915 1203.48 557.223C1203.48 543.356 1206.64 531.332 1212.96 521.151C1219.45 510.794 1227.97 502.807 1238.5 497.19C1249.21 491.573 1261.14 488.764 1274.31 488.764C1286.24 488.764 1296.78 491.221 1305.9 496.137C1315.03 500.876 1322.14 508.336 1327.23 518.517C1332.32 528.523 1334.87 541.425 1334.87 557.223C1334.87 572.847 1332.32 585.748 1327.23 595.93C1322.14 605.934 1315.03 613.395 1305.9 618.311C1296.78 623.225 1286.24 625.684 1274.31 625.684ZM1282.47 591.98C1289.67 591.98 1296.07 590.576 1301.69 587.767C1307.31 584.783 1311.7 580.658 1314.86 575.392C1318.02 570.126 1319.6 564.069 1319.6 557.223C1319.6 550.202 1318.02 544.146 1314.86 539.055C1311.7 533.789 1307.31 529.752 1301.69 526.943C1296.07 523.959 1289.67 522.467 1282.47 522.467C1275.27 522.467 1268.87 523.959 1263.25 526.943C1257.63 529.752 1253.16 533.789 1249.82 539.055C1246.66 544.146 1245.08 550.202 1245.08 557.223C1245.08 564.069 1246.66 570.126 1249.82 575.392C1253.16 580.658 1257.63 584.783 1263.25 587.767C1268.87 590.576 1275.27 591.98 1282.47 591.98Z" fill="black"/>
<path d="M1108.88 634.635C1093.78 634.635 1080.36 631.477 1068.59 625.157C1057.01 618.838 1047.79 610.236 1040.95 599.353C1034.28 588.294 1030.94 575.743 1030.94 561.7C1030.94 547.481 1034.28 534.93 1040.95 524.047C1047.79 512.988 1057.01 504.387 1068.59 498.243C1080.36 491.924 1093.78 488.764 1108.88 488.764C1123.8 488.764 1137.14 491.924 1148.9 498.243C1160.66 504.387 1169.88 512.9 1176.55 523.784C1183.22 534.667 1186.56 547.306 1186.56 561.7C1186.56 575.743 1183.22 588.294 1176.55 599.353C1169.88 610.236 1160.66 618.838 1148.9 625.157C1137.14 631.477 1123.8 634.635 1108.88 634.635ZM1108.88 600.933C1115.73 600.933 1121.87 599.353 1127.31 596.192C1132.75 593.033 1137.05 588.557 1140.21 582.764C1143.37 576.796 1144.95 569.774 1144.95 561.7C1144.95 553.449 1143.37 546.428 1140.21 540.635C1137.05 534.842 1132.75 530.366 1127.31 527.207C1121.87 524.047 1115.73 522.467 1108.88 522.467C1102.03 522.467 1095.89 524.047 1090.45 527.207C1085.01 530.366 1080.62 534.842 1077.28 540.635C1074.12 546.428 1072.54 553.449 1072.54 561.7C1072.54 569.774 1074.12 576.796 1077.28 582.764C1080.62 588.557 1085.01 593.033 1090.45 596.192C1095.89 599.353 1102.03 600.933 1108.88 600.933Z" fill="black"/>
<path d="M962.275 632.53V437.156H1003.35V632.53H962.275Z" fill="black"/>
<path d="M841.281 634.635C829.519 634.635 818.987 632.353 809.684 627.789C800.556 623.225 793.447 616.291 788.356 606.988C783.265 597.51 780.721 585.485 780.721 570.916V490.871H821.796V564.86C821.796 576.621 824.253 585.31 829.169 590.927C834.26 596.369 841.368 599.09 850.497 599.09C856.816 599.09 862.434 597.772 867.348 595.14C872.264 592.332 876.124 588.118 878.933 582.501C881.742 576.708 883.145 569.511 883.145 560.91V490.871H924.223V632.53H885.253V593.56L892.361 604.883C887.622 614.713 880.601 622.173 871.298 627.262C862.17 632.178 852.165 634.635 841.281 634.635Z" fill="black"/>
<path d="M571.755 632.53V448.215H607.037L715.784 580.921H698.668V448.215H740.797V632.53H705.779L596.77 499.823H613.884V632.53H571.755Z" fill="black"/>
<path d="M427.004 598.182H460.337V634.972H313.175V598.182H384.404L396.853 563.327H322.856V526.536H452.593L427.004 598.182ZM433.229 485.874H340.284V449.083H433.229V485.874Z" fill="black"/>
</svg>
