<svg width="1920" height="1080" viewBox="0 0 1920 1080" fill="none" xmlns="http://www.w3.org/2000/svg">
<g clip-path="url(#clip0_527_186)">
<path d="M429.794 623.362C429.794 623.362 429.794 622.898 429.515 622.805C429.329 622.619 429.144 622.619 428.865 622.619C423.667 623.547 420.975 623.547 415.776 622.619C415.59 622.619 415.312 622.619 415.126 622.805C414.94 622.99 414.848 623.176 414.848 623.362C415.405 634.873 415.962 646.848 415.962 658.638V682.124C415.962 694.006 415.405 705.889 414.848 717.4C414.848 717.586 414.848 717.864 415.126 717.957C415.312 718.143 415.497 718.143 415.776 718.143C421.067 717.214 423.574 717.214 428.865 718.143C428.865 718.143 428.865 718.143 428.958 718.143C429.144 718.143 429.329 718.143 429.422 717.957C429.608 717.771 429.701 717.586 429.701 717.4C429.144 705.889 428.587 694.006 428.587 682.124V658.638C428.587 646.755 429.144 634.873 429.701 623.362H429.794Z" fill="#595757"/>
<path d="M526.808 622.713C526.808 622.713 526.343 622.527 526.158 622.527C524.487 622.991 523.28 623.177 521.98 623.177C520.681 623.177 519.103 622.991 517.524 622.527C517.339 622.527 517.06 622.527 516.875 622.713C516.689 622.898 516.596 623.084 516.596 623.362C517.617 643.785 517.71 670.057 517.71 693.543C502.3 677.947 476.679 650.005 455.884 627.54L449.943 621.134C449.943 621.134 449.572 620.856 449.386 620.856H447.251C447.251 620.856 446.88 620.856 446.694 621.134C446.508 621.32 446.508 621.506 446.508 621.691C446.88 627.818 446.88 641.186 446.88 658.174C446.88 676.462 445.116 711.181 444.002 717.401C444.002 717.679 444.002 717.865 444.188 718.05C444.373 718.236 444.652 718.329 444.837 718.236C446.88 717.772 448.365 717.586 449.757 717.586C451.15 717.586 452.728 717.772 454.306 718.236C454.585 718.236 454.77 718.236 454.956 718.05C455.142 717.865 455.235 717.679 455.235 717.401C454.585 712.016 454.028 683.703 454.028 671.542C454.028 658.731 454.213 650.933 454.399 645.735L458.948 650.562C480.578 673.584 502.95 697.349 521.98 719.814C522.166 720 522.352 720.093 522.537 720.093H524.487C524.487 720.093 524.858 720.093 525.044 719.907C525.229 719.721 525.229 719.536 525.229 719.35C525.137 713.409 524.858 683.146 524.858 669.128C524.858 658.453 526.251 631.624 526.993 623.548C526.993 623.27 526.993 623.084 526.715 622.898L526.808 622.713Z" fill="#595757"/>
<path d="M613.136 627.725C613.136 626.518 613.321 625.311 613.785 623.547C613.785 623.362 613.785 623.083 613.693 622.898C613.507 622.712 613.321 622.619 613.043 622.619C599.954 623.083 588.443 623.269 577.86 623.269C567.277 623.269 555.859 623.083 542.677 622.619C542.491 622.619 542.213 622.712 542.027 622.898C541.841 623.083 541.841 623.362 541.934 623.547C542.398 625.218 542.584 626.425 542.584 627.539C542.584 628.839 542.398 630.231 541.934 631.717C541.934 631.995 541.934 632.181 542.12 632.459C542.305 632.645 542.491 632.738 542.77 632.738C549.639 631.902 561.243 631.252 571.176 631.252C571.454 640.35 571.547 649.633 571.547 658.731V682.217C571.547 694.099 570.99 705.982 570.433 717.493C570.433 717.678 570.433 717.957 570.712 718.05C570.805 718.143 570.99 718.235 571.176 718.235C571.176 718.235 571.176 718.235 571.269 718.235C576.56 717.307 579.067 717.307 584.358 718.235C584.544 718.235 584.822 718.235 585.008 718.05C585.193 717.864 585.286 717.678 585.286 717.493C584.729 705.982 584.172 694.099 584.172 682.217V658.731C584.172 649.633 584.265 640.35 584.544 631.252C594.477 631.252 606.08 631.902 612.95 632.738C613.229 632.738 613.414 632.738 613.6 632.459C613.785 632.274 613.785 631.995 613.785 631.717C613.321 630.324 613.136 628.932 613.136 627.725Z" fill="#595757"/>
<path d="M679.425 708.767C679.425 708.767 678.961 708.488 678.775 708.581C670.792 710.066 656.217 710.345 642.85 710.345C642.85 707.745 642.571 701.711 642.571 690.664C642.571 678.596 642.571 674.697 642.664 671.634C648.791 671.634 665.593 671.912 674.969 672.841C675.248 672.841 675.433 672.841 675.619 672.562C675.805 672.377 675.805 672.191 675.805 671.912C675.526 670.613 675.433 669.313 675.433 667.921C675.433 666.528 675.526 665.136 675.805 663.836C675.805 663.65 675.805 663.372 675.619 663.186C675.433 663.001 675.248 662.908 674.969 662.908C666.614 663.65 657.888 664.207 642.664 664.3C642.664 662.908 642.664 661.144 642.664 659.102C642.664 655.574 642.664 651.211 642.664 647.034C642.664 642.856 642.85 639.607 642.942 636.358C642.942 634.409 643.128 632.552 643.128 630.51C656.403 630.51 663.272 631.067 671.163 631.716C673.391 631.902 675.712 632.088 678.218 632.273C678.497 632.273 678.682 632.273 678.868 631.995C679.054 631.809 679.054 631.624 679.054 631.345C678.775 630.046 678.682 628.746 678.682 627.353C678.682 625.961 678.775 624.754 679.054 623.362C679.054 623.176 679.054 622.897 678.868 622.712C678.682 622.526 678.497 622.433 678.218 622.433C669.121 622.898 661.416 623.083 653.989 623.083C646.563 623.083 638.858 622.898 629.575 622.433C629.389 622.433 629.111 622.433 629.018 622.619C628.832 622.805 628.832 622.99 628.832 623.176C629.296 634.037 629.946 646.384 629.946 658.359V681.845C629.946 693.542 629.389 705.61 628.832 717.307C628.832 717.493 628.832 717.678 629.018 717.864C629.203 717.957 629.389 718.05 629.575 718.05C639.043 717.585 646.934 717.4 654.361 717.4C661.787 717.4 669.771 717.585 678.868 718.05C679.054 718.05 679.332 718.05 679.518 717.771C679.704 717.585 679.704 717.307 679.704 717.121C679.425 716.007 679.332 714.615 679.332 713.315C679.332 712.201 679.425 710.437 679.704 709.231C679.704 708.952 679.704 708.766 679.518 708.581L679.425 708.767Z" fill="#595757"/>
<path d="M735.298 680.824C732.328 677.018 729.728 673.676 727.872 671.448C738.64 669.684 755.164 662.258 755.164 644.806C755.164 630.231 745.138 622.526 726.015 622.526C723.416 622.526 720.724 622.712 718.217 622.897C715.711 623.083 713.019 623.269 710.512 623.269C705.871 623.269 700.765 623.083 695.01 622.619C694.824 622.619 694.545 622.619 694.453 622.805C694.267 622.99 694.174 623.176 694.267 623.362C694.824 634.873 695.381 646.848 695.381 658.638V682.124C695.381 694.006 694.824 705.889 694.267 717.4C694.267 717.585 694.267 717.864 694.545 717.957C694.731 718.142 694.917 718.142 695.195 718.142C700.487 717.214 702.993 717.214 708.284 718.142C708.47 718.142 708.749 718.142 708.934 717.957C709.12 717.771 709.213 717.585 709.213 717.4C708.656 705.889 708.099 694.006 708.099 682.124V672.934H712.183C723.88 684.816 741.982 709.88 747.181 717.864C747.366 718.142 747.645 718.235 747.923 718.235C750.801 717.771 753.4 717.585 755.721 717.585C758.042 717.585 760.734 717.771 763.798 718.235C763.798 718.235 763.798 718.235 763.89 718.235C764.169 718.235 764.447 718.05 764.54 717.864C764.726 717.585 764.633 717.214 764.447 717.028C758.692 710.53 744.581 692.707 735.298 680.917V680.824ZM708.006 658.638C708.006 649.076 708.377 639.7 708.841 629.674C711.719 629.396 715.525 629.024 721.374 629.024C727.5 629.024 741.797 630.695 741.797 646.105C741.797 661.515 728.707 666.25 716.454 666.25C712.647 666.25 710.048 666.064 708.099 665.693V658.545L708.006 658.638Z" fill="#595757"/>
<path d="M861.091 622.713C861.091 622.713 860.627 622.527 860.441 622.527C858.77 622.991 857.563 623.177 856.264 623.177C854.964 623.177 853.386 622.991 851.808 622.527C851.529 622.527 851.343 622.527 851.158 622.713C850.972 622.898 850.879 623.084 850.879 623.362C851.9 643.785 851.993 670.057 851.993 693.543C836.583 677.947 810.962 650.005 790.168 627.54L784.226 621.134C784.226 621.134 783.855 620.856 783.669 620.856H781.534C781.534 620.856 781.163 620.856 780.977 621.134C780.792 621.32 780.792 621.506 780.792 621.691C781.163 627.818 781.163 641.186 781.163 658.174C781.163 676.462 779.399 711.181 778.285 717.401C778.285 717.679 778.285 717.865 778.471 718.05C778.656 718.236 778.935 718.329 779.121 718.236C781.163 717.772 782.648 717.586 784.041 717.586C785.433 717.586 787.011 717.772 788.589 718.236C788.868 718.236 789.054 718.236 789.239 718.05C789.425 717.865 789.518 717.679 789.518 717.401C788.868 712.016 788.311 683.703 788.311 671.542C788.311 658.731 788.497 650.933 788.682 645.735L793.231 650.562C814.861 673.584 837.233 697.349 856.264 719.814C856.449 720 856.635 720.093 856.82 720.093H858.77C858.77 720.093 859.141 720.093 859.327 719.907C859.513 719.721 859.513 719.536 859.513 719.35C859.42 713.409 859.141 683.146 859.141 669.128C859.141 658.453 860.534 631.624 861.276 623.548C861.276 623.27 861.276 623.084 860.998 622.898L861.091 622.713Z" fill="#595757"/>
<path d="M926.806 708.767C926.806 708.767 926.342 708.488 926.156 708.581C918.173 710.066 903.598 710.345 890.23 710.345C890.23 707.745 889.952 701.711 889.952 690.664C889.952 678.596 889.952 674.697 890.045 671.634C896.172 671.634 912.974 671.912 922.35 672.841C922.629 672.841 922.814 672.841 923 672.562C923.186 672.284 923.186 672.191 923.186 671.912C922.907 670.613 922.814 669.313 922.814 667.921C922.814 666.528 922.907 665.136 923.186 663.836C923.186 663.65 923.186 663.372 923 663.186C922.814 663.001 922.629 662.908 922.35 662.908C913.995 663.65 905.269 664.207 890.045 664.3C890.045 662.908 890.045 661.144 890.045 659.102C890.045 655.574 890.045 651.211 890.045 647.034C890.045 642.856 890.23 639.607 890.323 636.358C890.323 634.409 890.509 632.552 890.509 630.51C903.784 630.51 910.653 631.067 918.544 631.716C920.772 631.902 923.093 632.088 925.599 632.273C925.785 632.273 926.063 632.273 926.249 631.995C926.435 631.809 926.435 631.624 926.435 631.345C926.156 630.046 926.063 628.746 926.063 627.353C926.063 625.961 926.156 624.754 926.435 623.362C926.435 623.176 926.435 622.897 926.249 622.712C926.063 622.526 925.878 622.433 925.599 622.433C916.502 622.898 908.797 623.083 901.37 623.083C893.944 623.083 886.239 622.898 876.956 622.433C876.77 622.433 876.491 622.433 876.399 622.619C876.213 622.805 876.213 622.99 876.213 623.176C876.677 634.037 877.327 646.384 877.327 658.359V681.845C877.327 693.542 876.77 705.61 876.213 717.307C876.213 717.493 876.213 717.678 876.399 717.864C876.584 717.957 876.77 718.05 876.956 718.05C886.424 717.585 894.315 717.4 901.742 717.4C909.168 717.4 917.152 717.585 926.249 718.05C926.528 718.05 926.713 718.05 926.899 717.771C927.085 717.493 927.084 717.307 927.084 717.121C926.806 716.007 926.713 714.615 926.713 713.315C926.713 712.201 926.806 710.437 927.084 709.231C927.084 708.952 927.085 708.766 926.899 708.581L926.806 708.767Z" fill="#595757"/>
<path d="M1014.25 627.725C1014.25 626.518 1014.44 625.311 1014.9 623.547C1014.9 623.362 1014.9 623.083 1014.81 622.898C1014.62 622.712 1014.44 622.619 1014.16 622.619C1001.07 623.083 989.558 623.269 978.975 623.269C968.392 623.269 956.974 623.083 943.792 622.619C943.606 622.619 943.328 622.712 943.142 622.898C942.956 623.083 942.956 623.362 943.049 623.547C943.513 625.218 943.699 626.425 943.699 627.539C943.699 628.839 943.513 630.231 943.049 631.717C943.049 631.995 943.049 632.181 943.235 632.459C943.421 632.645 943.606 632.738 943.885 632.738C950.754 631.902 962.358 631.252 972.291 631.252C972.57 640.35 972.662 649.633 972.662 658.731V682.217C972.662 694.099 972.105 705.982 971.548 717.493C971.548 717.678 971.548 717.957 971.827 718.05C971.92 718.143 972.105 718.235 972.291 718.235C972.291 718.235 972.291 718.235 972.384 718.235C977.675 717.307 980.182 717.307 985.473 718.235C985.659 718.235 985.937 718.235 986.123 718.05C986.309 717.864 986.402 717.678 986.402 717.493C985.845 705.982 985.288 694.099 985.288 682.217V658.731C985.288 649.633 985.38 640.35 985.659 631.252C995.592 631.252 1007.2 631.902 1014.07 632.738C1014.34 632.738 1014.53 632.738 1014.72 632.459C1014.9 632.274 1014.9 631.995 1014.9 631.717C1014.44 630.324 1014.25 628.932 1014.25 627.725Z" fill="#595757"/>
<path d="M1100.69 620.763C1067.37 620.763 1046.57 639.793 1046.57 670.335C1046.57 700.876 1066.07 719.907 1099.95 719.907C1110.53 719.907 1127.15 716.101 1134.95 713.316C1135.23 713.223 1135.41 712.944 1135.41 712.573C1135.41 710.717 1135.41 708.767 1135.41 706.91C1135.41 705.054 1135.41 703.29 1135.41 701.526C1135.41 683.981 1135.78 676.369 1135.97 673.862C1135.97 673.584 1135.97 673.398 1135.69 673.213C1135.5 673.027 1135.23 673.027 1135.04 673.12C1133.56 673.584 1131.79 673.77 1129.38 673.77C1127.24 673.77 1124.74 673.491 1122.97 673.12C1122.79 673.12 1122.51 673.12 1122.32 673.305C1122.14 673.491 1122.04 673.677 1122.04 673.955L1122.23 677.297C1122.51 682.032 1122.79 687.416 1122.79 692.614C1122.79 698.091 1122.69 703.476 1122.51 708.674C1117.68 711.459 1108.31 712.759 1101.44 712.759C1076.46 712.759 1061.52 696.885 1061.52 670.428C1061.52 643.971 1075.81 627.354 1100.69 627.354C1114.34 627.354 1124.83 634.131 1130.12 640.443C1130.31 640.629 1130.49 640.722 1130.68 640.722H1132.35C1132.35 640.722 1133.09 640.443 1133.09 640.072C1133.46 636.637 1134.85 632.181 1136.15 629.86C1136.25 629.675 1136.25 629.489 1136.15 629.303C1136.15 629.118 1135.97 628.932 1135.78 628.839C1128.36 624.848 1118.33 620.856 1100.6 620.856L1100.69 620.763Z" fill="#595757"/>
<path d="M1193.8 680.824C1190.83 677.018 1188.23 673.676 1186.37 671.448C1197.14 669.684 1213.66 662.258 1213.66 644.806C1213.66 630.231 1203.64 622.526 1184.52 622.526C1181.92 622.526 1179.22 622.712 1176.72 622.897C1174.21 623.083 1171.52 623.269 1169.01 623.269C1164.37 623.269 1159.27 623.083 1153.51 622.619C1153.32 622.619 1153.05 622.619 1152.95 622.805C1152.77 622.99 1152.67 623.176 1152.77 623.362C1153.32 634.873 1153.88 646.848 1153.88 658.638V682.124C1153.88 694.006 1153.32 705.889 1152.77 717.4C1152.77 717.585 1152.77 717.864 1153.05 717.957C1153.23 718.142 1153.42 718.142 1153.7 718.142C1158.99 717.214 1161.49 717.214 1166.78 718.142C1166.97 718.142 1167.25 718.142 1167.43 717.957C1167.62 717.771 1167.71 717.585 1167.71 717.4C1167.16 705.889 1166.6 694.006 1166.6 682.124V672.934H1170.68C1182.38 684.909 1200.48 709.88 1205.68 717.864C1205.87 718.142 1206.14 718.235 1206.42 718.235C1209.3 717.771 1211.9 717.585 1214.22 717.585C1216.54 717.585 1219.23 717.771 1222.3 718.235C1222.3 718.235 1222.3 718.235 1222.39 718.235C1222.67 718.235 1222.95 718.05 1223.04 717.864C1223.23 717.585 1223.13 717.214 1222.95 717.028C1217.19 710.53 1203.08 692.707 1193.8 680.917V680.824ZM1166.51 658.638C1166.51 649.076 1166.88 639.7 1167.34 629.674C1170.22 629.396 1174.03 629.024 1179.87 629.024C1186 629.024 1200.3 630.695 1200.3 646.105C1200.3 661.515 1187.21 666.25 1174.95 666.25C1171.15 666.25 1168.55 666.064 1166.6 665.693V658.545L1166.51 658.638Z" fill="#595757"/>
<path d="M1277.16 620.763C1245.69 620.763 1225.36 640.258 1225.36 670.335C1225.36 700.412 1245.69 719.907 1277.16 719.907C1308.63 719.907 1329.06 700.412 1329.06 670.335C1329.06 640.258 1308.73 620.763 1277.16 620.763ZM1314.2 670.428C1314.2 697.813 1300.74 713.501 1277.16 713.501C1253.58 713.501 1240.31 697.813 1240.31 670.428C1240.31 643.042 1253.77 627.354 1277.16 627.354C1300.56 627.354 1314.2 643.042 1314.2 670.428Z" fill="#595757"/>
<path d="M1424.38 622.619C1423.17 622.99 1421.78 623.269 1420.48 623.269C1418.81 623.269 1416.95 623.083 1415.1 622.619C1414.82 622.619 1414.63 622.619 1414.45 622.805C1414.26 622.99 1414.17 623.269 1414.26 623.454C1415.1 628.746 1415.1 641.742 1415.1 667.642C1415.1 685.28 1415.1 712.015 1385.95 712.015C1356.8 712.015 1356.24 688.715 1356.24 670.056C1356.24 649.911 1357.08 631.345 1357.91 623.362C1357.91 623.083 1357.91 622.897 1357.63 622.712C1357.45 622.526 1357.17 622.526 1356.99 622.526C1355.22 622.897 1353.09 623.176 1351.32 623.176C1349.19 623.176 1346.59 622.897 1344.36 622.526C1344.17 622.526 1343.9 622.526 1343.71 622.712C1343.52 622.897 1343.43 623.083 1343.43 623.269V626.982C1343.9 634.873 1344.27 645.734 1344.27 658.545C1344.27 661.794 1344.08 664.857 1343.99 668.106C1343.8 671.819 1343.62 675.626 1343.62 680.081C1343.62 707.188 1356.24 719.813 1383.35 719.813C1407.86 719.813 1422.71 704.867 1422.99 679.803C1423.27 660.773 1424.29 636.451 1425.4 623.269C1425.4 622.99 1425.4 622.805 1425.12 622.619C1424.94 622.433 1424.66 622.433 1424.38 622.526V622.619Z" fill="#595757"/>
<path d="M1471.73 622.619C1469.87 622.619 1466.9 622.805 1463.74 622.991C1460.4 623.176 1457.06 623.362 1454.83 623.362C1450.93 623.362 1446.48 623.176 1441.65 622.712C1441.46 622.712 1441.18 622.712 1441.09 622.898C1440.91 623.084 1440.81 623.269 1440.91 623.455C1441.46 634.966 1442.02 646.941 1442.02 658.731V682.217C1442.02 694.1 1441.46 705.982 1440.91 717.493C1440.91 717.679 1440.91 717.957 1441.18 718.05C1441.37 718.236 1441.56 718.236 1441.83 718.236C1447.13 717.307 1449.63 717.307 1454.92 718.236C1454.92 718.236 1454.92 718.236 1455.02 718.236C1455.2 718.236 1455.39 718.236 1455.48 718.05C1455.67 717.864 1455.76 717.679 1455.76 717.493C1455.2 705.982 1454.64 694.1 1454.64 682.217V675.533C1457.99 675.812 1461.24 675.905 1464.95 675.905C1483.05 675.905 1502.36 668.2 1502.36 646.477C1502.36 622.712 1479.34 622.712 1471.73 622.712V622.619ZM1488.34 647.22C1488.34 666.343 1472.84 669.221 1463.56 669.221C1460.68 669.221 1457.24 668.849 1454.64 668.292V629.118H1466.16C1479.8 629.118 1488.34 632.181 1488.34 647.22Z" fill="#595757"/>
<path d="M959.667 565.157H974.427C975.17 565.157 976.098 564.6 976.47 563.95L1037.65 463.878L1070.88 578.432C1071.06 579.175 1071.9 579.732 1072.64 579.732H1136.79C1137.53 579.732 1138 579.175 1137.72 578.432L1070.04 364.177C1069.86 363.435 1069.02 362.878 1068.28 362.878H1044.14C1043.4 362.878 1042.47 363.435 1042.01 363.992L959.574 491.82L877.233 364.084C876.862 363.435 875.841 362.97 875.098 362.97H850.962C850.219 362.97 849.384 363.527 849.198 364.27L781.524 578.525C781.338 579.267 781.71 579.824 782.452 579.824H846.599C847.341 579.824 848.177 579.267 848.362 578.525L881.596 463.971L942.772 564.043C943.143 564.693 944.072 565.25 944.814 565.25H959.574L959.667 565.157Z" fill="#005BAB"/>
<path d="M784.499 458.493C784.406 457.843 783.849 457.379 783.199 457.379H600.415C590.76 457.379 582.869 465.177 582.869 474.924C582.869 484.672 590.667 492.469 600.415 492.469H709.027C696.124 526.631 652.4 551.789 600.415 551.789C538.31 551.789 487.903 515.77 487.903 471.397C487.903 427.023 538.218 391.005 600.322 391.005C634.298 391.005 664.654 401.773 685.355 418.669C685.355 418.669 685.541 418.761 685.541 418.854C685.727 419.04 686.005 419.04 686.284 419.04H761.013C761.755 419.04 762.405 418.39 762.405 417.647C762.405 417.276 762.312 416.998 762.127 416.812C762.127 416.812 762.127 416.812 762.034 416.719C730.1 382.836 669.667 359.999 600.322 359.999C497.929 359.999 414.938 409.85 414.938 471.304C414.938 532.758 497.929 582.702 600.322 582.702C702.715 582.702 785.706 532.851 785.706 471.304C785.706 466.941 785.242 462.671 784.499 458.4V458.493Z" fill="#005BAB"/>
<path d="M1318.93 359.999C1216.54 359.999 1133.55 409.85 1133.55 471.304C1133.55 532.758 1216.54 582.702 1318.93 582.702C1421.32 582.702 1504.32 532.851 1504.32 471.304C1504.32 409.757 1421.32 359.999 1318.93 359.999ZM1318.93 551.696C1256.83 551.696 1206.42 515.677 1206.42 471.304C1206.42 426.931 1256.83 391.005 1318.93 391.005C1381.04 391.005 1431.44 427.023 1431.44 471.304C1431.44 515.584 1381.04 551.696 1318.93 551.696Z" fill="#005BAB"/>
</g>
<defs>
<clipPath id="clip0_527_186">
<rect width="1089.38" height="360" fill="white" transform="translate(414.93 360)"/>
</clipPath>
</defs>
</svg>
