<svg width="1920" height="1080" viewBox="0 0 1920 1080" fill="none" xmlns="http://www.w3.org/2000/svg">
<path d="M1400.24 384.934L1451.74 333.456C1423.32 333.456 1400.24 356.526 1400.24 384.934Z" fill="#D32329"/>
<path d="M1451.74 436.412L1400.24 384.934C1400.24 413.342 1423.32 436.412 1451.74 436.412Z" fill="#D32329"/>
<path d="M1426.05 384.934L1451.84 410.719L1477.64 384.934L1471.21 378.511L1458.36 391.358L1445.51 378.511L1471.3 352.726L1503.52 384.934C1503.52 356.526 1480.44 333.456 1452.02 333.456L1464.88 346.303L1426.23 384.934H1426.05Z" fill="#D32329"/>
<path d="M1451.75 436.412C1480.17 436.412 1503.25 413.342 1503.25 384.934L1451.75 436.412Z" fill="#D32329"/>
<path d="M959.996 317.352V356.617L360 492.324L959.996 317.352Z" fill="#D32329"/>
<path d="M960.006 395.881V356.617L1560 221L960.006 395.881Z" fill="#D32329"/>
<path d="M502.113 671.819V658.611C502.113 646.216 505.281 636.535 511.617 629.479C517.953 622.422 526.461 618.894 537.05 618.894C547.64 618.894 556.148 622.422 562.484 629.479C568.82 636.535 571.987 646.216 571.987 658.701V671.91C571.987 684.304 568.82 693.804 562.484 700.589C556.148 707.375 547.64 710.813 536.869 710.813C526.099 710.813 517.681 707.375 511.436 700.589C505.191 693.804 502.113 684.214 502.113 671.91M512.431 658.611V671.819C512.431 676.705 513.065 681.138 514.332 684.938C515.599 688.828 517.319 691.904 519.582 694.256C521.845 696.609 524.379 698.418 527.275 699.594C530.172 700.77 533.43 701.404 536.96 701.404C540.49 701.404 543.748 700.77 546.735 699.594C549.722 698.418 552.347 696.609 554.609 694.256C556.872 691.904 558.592 688.828 559.859 684.938C561.126 681.138 561.669 676.705 561.669 671.819V658.611C561.669 648.84 559.406 641.331 554.79 636.083C550.174 630.836 544.291 628.212 536.96 628.212C529.628 628.212 523.836 630.836 519.22 636.083C514.604 641.331 512.341 648.84 512.341 658.611" fill="#D32329"/>
<path d="M587.551 671.819V658.611C587.551 646.216 590.719 636.535 597.055 629.479C603.39 622.422 611.898 618.894 622.488 618.894C633.078 618.894 641.586 622.422 647.922 629.479C654.257 636.535 657.425 646.216 657.425 658.701V671.91C657.425 684.304 654.257 693.804 647.922 700.589C641.586 707.375 633.078 710.813 622.307 710.813C611.536 710.813 603.119 707.375 596.873 700.589C590.628 693.804 587.551 684.214 587.551 671.91M597.779 658.611V671.819C597.779 676.705 598.412 681.138 599.679 684.938C600.947 688.828 602.666 691.904 604.929 694.256C607.192 696.609 609.726 698.418 612.622 699.594C615.519 700.77 618.777 701.404 622.307 701.404C625.837 701.404 629.095 700.77 632.082 699.594C635.069 698.418 637.694 696.609 639.957 694.256C642.219 691.904 643.939 688.828 645.206 684.938C646.473 681.138 647.016 676.705 647.016 671.819V658.611C647.016 648.84 644.754 641.331 640.138 636.083C635.522 630.836 629.639 628.212 622.307 628.212C614.976 628.212 609.183 630.836 604.567 636.083C599.951 641.331 597.688 648.84 597.688 658.611" fill="#D32329"/>
<path d="M676.88 620.612H704.576C711.545 620.612 717.519 621.698 722.587 623.779C727.656 625.95 731.638 629.026 734.625 633.007C737.612 637.078 739.784 641.692 741.233 646.939C742.681 652.187 743.314 658.068 743.314 664.672C743.314 671.277 742.59 677.157 741.233 682.314C739.875 687.471 737.703 692.085 734.806 696.156C731.91 700.227 727.927 703.394 722.768 705.565C717.609 707.736 711.545 708.822 704.485 708.822H676.789V620.522L676.88 620.612ZM687.288 629.931V699.594H704.214C723.221 699.594 732.634 688.014 732.634 664.853C732.634 641.692 723.131 630.022 704.214 630.022H687.288V629.931Z" fill="#D32329"/>
<path d="M796.257 620.612H823.953C830.832 620.612 836.896 621.698 841.964 623.779C847.033 625.95 851.015 629.026 854.002 633.007C856.989 637.078 859.161 641.692 860.61 646.939C862.058 652.187 862.691 658.068 862.691 664.672C862.691 671.277 861.967 677.157 860.61 682.314C859.252 687.471 857.08 692.085 854.183 696.156C851.287 700.227 847.304 703.394 842.145 705.565C836.986 707.736 830.922 708.822 823.862 708.822H796.166V620.522L796.257 620.612ZM806.665 629.931V699.594H823.591C842.598 699.594 852.011 688.014 852.011 664.853C852.011 641.692 842.507 630.022 823.591 630.022H806.665V629.931Z" fill="#D32329"/>
<path d="M935.195 698.599V707.918H882.789V621.608H935.195V631.017H893.198V659.063H932.841V668.472H893.198V698.599H935.195Z" fill="#D32329"/>
<path d="M952.67 685.299H963.079C963.531 690.004 965.703 693.894 969.595 696.88C973.487 699.865 978.737 701.403 985.435 701.403C991.68 701.403 996.748 699.956 1000.55 697.061C1004.35 694.166 1006.25 690.275 1006.25 685.299C1006.25 681.59 1005.08 678.604 1002.72 676.343C1000.37 673.99 996.658 672.181 991.68 670.914L975.841 666.662C969.867 665.124 964.979 662.501 961.178 658.791C957.376 655.082 955.476 650.106 955.476 643.863C955.476 638.616 956.924 634.002 959.82 630.112C962.716 626.221 966.427 623.326 970.953 621.426C975.479 619.617 980.366 618.712 985.616 618.712C989.417 618.712 993.038 619.165 996.477 620.16C999.916 621.155 1003.08 622.603 1005.98 624.503C1008.88 626.402 1011.23 629.026 1013.04 632.374C1014.76 635.721 1015.76 639.43 1015.94 643.592H1005.53C1005.08 638.978 1003.08 635.178 999.645 632.374C996.205 629.478 991.499 628.031 985.344 628.031C979.642 628.031 974.936 629.388 971.315 632.012C967.695 634.635 965.884 638.345 965.884 643.14C965.884 649.925 970.048 654.449 978.375 656.62L993.852 660.782C1001.27 662.863 1006.89 665.757 1010.87 669.376C1014.76 673.086 1016.75 678.152 1016.75 684.666C1016.75 693.08 1013.67 699.503 1007.52 704.027C1001.36 708.551 993.581 710.812 984.077 710.812C978.647 710.812 973.849 709.998 969.595 708.46C965.432 706.922 962.173 704.841 959.82 702.308C957.467 699.775 955.747 697.061 954.571 694.165C953.394 691.27 952.76 688.375 952.67 685.299Z" fill="#D32329"/>
<path d="M1048.6 620.613H1038.2V708.913H1048.6V620.613Z" fill="#D32329"/>
<path d="M1171.8 708.913H1161.39V620.613H1171.8L1216.97 691.18H1217.51V620.613H1227.74V708.913H1217.51L1172.16 638.345H1171.8V708.913Z" fill="#D32329"/>
<path d="M429.877 858.009H419.469V769.8H429.877L475.042 840.367H475.495V769.8H485.813V858.009H475.495L430.24 787.442H429.877V858.009Z" fill="#D32329"/>
<path d="M611.443 858.009H602.392L577.863 769.8H589.992L607.008 841.725H607.46L625.11 769.8H636.152L653.892 841.725H654.345L671.27 769.8H683.399L658.87 858.009H649.729L630.812 786.808H630.359L611.443 858.009Z" fill="#D32329"/>
<path d="M796.997 858.009H786.678V816.845H741.061V858.009H730.652V769.8H741.061V807.617H786.678V769.8H796.997V858.009Z" fill="#D32329"/>
<path d="M817.893 821.007V807.798C817.893 795.404 821.06 785.723 827.396 778.666C833.732 771.61 842.24 768.081 852.83 768.081C863.42 768.081 871.928 771.61 878.263 778.666C884.599 785.723 887.767 795.403 887.767 807.888V821.097C887.767 833.492 884.599 842.991 878.263 849.777C871.928 856.562 863.419 860 852.649 860C841.878 860 833.46 856.562 827.215 849.777C820.97 842.991 817.893 833.401 817.893 821.097M828.12 807.708V820.916C828.12 825.802 828.754 830.235 830.021 834.035C831.288 837.925 833.008 841.001 835.271 843.353C837.534 845.706 840.068 847.515 842.964 848.691C845.86 849.867 849.119 850.5 852.649 850.5C856.179 850.5 859.437 849.867 862.424 848.691C865.411 847.515 868.036 845.706 870.298 843.353C872.561 841.001 874.281 837.925 875.548 834.035C876.815 830.235 877.358 825.802 877.358 820.916V807.708C877.358 797.937 875.095 790.428 870.479 785.18C865.863 779.933 859.98 777.309 852.649 777.309C845.317 777.309 839.525 779.933 834.909 785.18C830.293 790.428 828.03 797.937 828.03 807.708" fill="#D32329"/>
<path d="M908.492 769.8H940.171C948.498 769.8 955.196 772.333 960.355 777.309C965.514 782.285 968.048 788.889 968.048 797.032C968.048 805.174 965.514 811.779 960.355 816.664C955.286 821.64 948.498 824.083 940.171 824.083H918.901V858.1H908.492V769.8ZM918.901 779.028V814.764H932.749C935.464 814.764 937.908 814.674 939.99 814.402C942.071 814.221 944.153 813.859 946.054 813.407C947.955 812.955 949.584 812.321 950.942 811.417C952.209 810.602 953.385 809.517 954.472 808.16C955.467 806.803 956.282 805.265 956.734 803.365C957.187 801.465 957.459 799.384 957.459 796.851C957.459 791.151 955.92 786.718 952.842 783.642C949.765 780.566 945.511 778.938 939.899 778.938H918.991L918.901 779.028Z" fill="#D32329"/>
<path d="M1098.57 858.01H1087.89L1119.66 769.709H1129.7L1161.38 858.01H1150.25L1141.11 830.778H1107.71L1098.57 858.01ZM1124.63 782.466H1124.27L1110.7 822.454H1138.3L1124.72 782.466H1124.63Z" fill="#D32329"/>
<path d="M1194.6 858.009H1185.55L1161.11 769.8H1173.24L1190.16 841.725H1190.62L1208.36 769.8H1219.31L1237.05 841.725H1237.5L1254.43 769.8H1266.55L1242.12 858.009H1232.97L1214.06 786.808H1213.51L1194.6 858.009Z" fill="#D32329"/>
<path d="M1276.88 858.01H1266.2L1297.97 769.709H1308.02L1339.7 858.01H1328.57L1319.42 830.778H1286.02L1276.88 858.01ZM1303.04 782.466H1302.68L1289.1 822.454H1316.71L1303.13 782.466H1303.04Z" fill="#D32329"/>
<path d="M1388.29 769.8C1393 769.8 1397.16 770.523 1400.88 771.971C1404.59 773.419 1407.48 775.319 1409.66 777.761C1411.83 780.204 1413.46 782.918 1414.63 785.994C1415.72 789.07 1416.26 792.327 1416.26 795.856C1416.26 802.46 1414.63 807.798 1411.56 811.869C1408.39 815.94 1404.5 818.745 1399.88 820.464L1417.98 858.1H1406.13L1389.74 822.635H1367.48V858.1H1357.07V769.8H1388.48H1388.29ZM1367.21 813.317H1386.48C1392.73 813.317 1397.44 811.869 1400.69 808.974C1403.95 806.079 1405.49 801.917 1405.49 796.579C1405.49 790.88 1403.86 786.537 1400.6 783.551C1397.35 780.566 1392.82 779.028 1387.03 779.028H1367.21V813.317Z" fill="#D32329"/>
<path d="M1436.82 769.8H1464.51C1471.48 769.8 1477.45 770.886 1482.52 772.967C1487.59 775.138 1491.57 778.214 1494.56 782.195C1497.55 786.266 1499.72 790.88 1501.17 796.127C1502.62 801.375 1503.25 807.255 1503.25 813.86C1503.25 820.464 1502.53 826.345 1501.17 831.502C1499.81 836.659 1497.64 841.273 1494.74 845.344C1491.85 849.415 1487.86 852.581 1482.7 854.753C1477.55 856.924 1471.48 858.01 1464.42 858.01H1436.72V769.709L1436.82 769.8ZM1447.22 779.028V848.691H1464.15C1483.16 848.691 1492.57 837.111 1492.57 813.95C1492.57 790.789 1483.07 779.119 1464.15 779.119H1447.22V779.028Z" fill="#D32329"/>
<path d="M563.112 847.696V857.105H510.615V770.705H563.112V780.113H521.024V808.16H560.758V817.569H521.024V847.696H563.112Z" fill="#D32329"/>
<path d="M1039.48 847.696V857.105H987.07V770.705H1039.48V780.113H997.479V808.16H1037.12V817.569H997.479V847.696H1039.48Z" fill="#D32329"/>
<path d="M1105.35 672.543H1128.97V682.404C1128.97 688.285 1126.8 693.08 1122.46 696.789C1118.11 700.499 1112.68 702.308 1106.08 702.308C1098.2 702.308 1092.23 699.594 1088.06 694.256C1083.9 688.918 1081.82 681.319 1081.82 671.638V657.344C1081.82 647.211 1084.08 639.611 1088.7 634.635C1093.31 629.659 1099.11 627.126 1106.35 627.126C1112.05 627.126 1117.03 628.664 1121.19 631.831C1124.45 634.364 1126.71 638.526 1127.89 643.411H1138.3C1137.3 636.897 1134.95 631.107 1129.43 625.86C1123.82 620.431 1116.21 617.717 1106.53 617.717C1095.85 617.717 1087.34 621.155 1081 628.121C1074.67 635.088 1071.5 644.768 1071.5 657.253V671.548C1071.5 684.123 1074.49 693.985 1080.37 701.041C1086.25 708.098 1094.85 711.627 1106.17 711.627C1110.96 711.627 1115.22 710.993 1119.11 709.636C1122.91 708.37 1126.08 706.651 1128.52 704.57C1130.97 702.489 1132.96 700.137 1134.59 697.423C1136.22 694.708 1137.3 692.085 1137.94 689.642C1138.57 687.109 1138.93 684.666 1138.93 682.314V663.044H1105.26V672.452L1105.35 672.543Z" fill="#D32329"/>
<path d="M450.509 672.543H474.132V682.404C474.132 688.285 471.96 693.08 467.616 696.789C463.271 700.499 457.84 702.308 451.233 702.308C443.359 702.308 437.385 699.594 433.222 694.256C429.058 688.918 426.976 681.319 426.976 671.638V657.344C426.976 647.211 429.239 639.611 433.855 634.635C438.471 629.659 444.264 627.126 451.505 627.126C457.207 627.126 462.185 628.664 466.349 631.831C469.607 634.364 471.87 638.526 473.046 643.411H483.455C482.459 636.897 480.106 631.107 474.585 625.86C468.973 620.431 461.37 617.717 451.686 617.717C441.006 617.717 432.497 621.155 426.162 628.121C419.826 635.088 416.658 644.768 416.658 657.253V671.548C416.658 684.123 419.645 693.985 425.528 701.041C431.411 708.098 440.01 711.627 451.324 711.627C456.03 711.627 460.375 710.993 464.176 709.636C467.978 708.37 471.145 706.651 473.589 704.57C476.033 702.489 478.024 700.137 479.654 697.423C481.283 694.708 482.369 692.085 483.002 689.642C483.636 687.109 483.998 684.666 483.998 682.314V663.044H450.328V672.452L450.509 672.543Z" fill="#D32329"/>
</svg>
