<svg width="1920" height="1080" viewBox="0 0 1920 1080" fill="none" xmlns="http://www.w3.org/2000/svg">
<g clip-path="url(#clip0_322_814)">
<path d="M277.175 448.213H239.252V479.803H208V517.711H239.252V548.951H277.175V517.711H308.427V479.803H277.175V448.213ZM441.51 391C384.274 391 337.572 437.683 337.572 494.896C337.572 552.461 384.274 598.793 441.51 598.793C443.266 598.793 445.022 598.793 446.777 598.793L389.892 689H441.861L525.785 555.269C537.724 538.42 545.098 517.711 545.098 494.896C545.449 437.683 499.098 391 441.51 391ZM441.51 554.918C408.503 554.918 381.816 527.89 381.816 494.896C381.816 461.902 408.503 435.226 441.51 434.875C474.518 434.875 501.205 461.902 501.205 494.896C501.556 527.89 474.518 554.567 441.51 554.918Z" fill="#040000"/>
<path d="M771.233 570.362H760.699V560.183C757.539 566.15 750.867 572.117 738.928 572.117C720.669 572.117 709.081 558.077 709.081 541.229C709.081 522.977 722.073 510.34 738.577 510.34C750.516 510.34 757.89 517.009 759.997 521.573V511.393V491.035H771.233V570.362ZM720.318 541.229C720.318 552.11 728.043 561.587 740.684 561.587C746.302 561.587 751.569 559.13 755.081 555.62C758.943 551.759 761.05 546.845 760.699 540.878C760.699 535.262 758.592 529.997 754.73 526.487C751.218 522.976 745.951 520.87 740.333 520.87C728.394 520.87 720.318 530.348 720.318 541.229Z" fill="#040000"/>
<path d="M791.248 544.739C791.951 556.673 802.134 562.64 810.912 562.64C818.637 562.64 824.607 558.779 827.767 552.812H839.355C836.546 559.13 832.332 564.044 827.416 567.203C822.5 570.362 816.882 572.117 810.912 572.117C791.951 572.117 780.012 556.673 780.012 541.229C780.012 524.38 793.004 510.34 810.912 510.34C819.34 510.34 826.714 513.499 832.332 518.764C839.355 525.785 842.164 534.911 841.111 544.739H791.248ZM829.874 535.964C829.172 528.242 821.798 519.466 810.561 519.817C799.325 519.817 791.951 527.891 791.248 535.964H829.874Z" fill="#040000"/>
<path d="M877.63 527.189C877.63 522.626 874.821 519.116 869.203 519.467C863.585 519.467 860.775 522.977 860.775 526.838C861.127 531.401 865.34 533.507 871.31 535.262C880.088 537.719 889.92 540.176 890.271 552.812C890.623 564.044 881.142 571.766 869.554 571.766C860.424 571.766 848.836 566.501 848.485 553.163H859.371C859.722 560.183 865.34 562.64 869.554 562.64C874.821 562.64 879.035 558.779 879.035 553.865C879.035 548.249 874.47 546.143 864.287 542.633C856.211 540.176 849.89 536.315 849.539 527.54C849.539 516.659 858.669 509.99 869.203 509.99C877.279 509.99 887.813 513.851 888.516 526.838H877.63V527.189Z" fill="#040000"/>
<path d="M899.752 491.035H910.989V502.969H899.752V491.035ZM899.752 512.095H910.989V570.362H899.752V512.095Z" fill="#040000"/>
<path d="M981.919 563.693C981.919 573.872 979.461 580.541 974.897 585.455C969.629 591.773 960.5 595.985 950.317 595.985C933.813 595.985 924.332 586.508 921.523 576.68H934.515C935.92 579.137 938.027 581.594 940.836 583.349C944.347 585.806 948.21 586.508 951.019 586.508C960.851 586.508 970.683 579.488 970.683 566.15V560.183C967.171 566.852 960.149 572.117 949.614 572.117C932.057 572.117 919.416 558.779 919.416 541.58C919.416 523.327 932.759 510.691 949.614 510.691C959.446 510.691 967.523 515.956 970.683 522.274V512.446H981.919V563.693ZM931.004 541.229C931.004 552.11 938.729 561.587 951.019 561.587C956.988 561.587 961.904 559.481 965.416 555.62C968.927 552.11 971.034 547.196 971.034 541.229C971.034 536.665 969.629 531.4 966.469 527.539C963.309 523.327 958.393 520.519 951.019 520.519C940.133 520.87 931.004 529.294 931.004 541.229Z" fill="#040000"/>
<path d="M994.561 512.095H1005.09V521.221C1007.9 515.254 1014.58 510.34 1024.76 510.34C1043.37 510.691 1048.29 524.029 1048.29 535.964V570.011H1037.05V538.421C1037.05 527.891 1032.84 520.519 1021.6 520.519C1010.71 520.519 1005.8 527.54 1005.8 537.368V569.66H994.561V512.095Z" fill="#040000"/>
<path d="M1060.22 491.035H1071.46V502.969H1060.22V491.035ZM1060.22 512.095H1071.46V570.362H1060.22V512.095Z" fill="#040000"/>
<path d="M1086.21 512.095H1096.74V521.221C1099.55 515.254 1106.22 510.34 1116.41 510.34C1135.02 510.691 1139.93 524.029 1139.93 535.964V570.011H1128.7V538.421C1128.7 527.891 1124.48 520.519 1113.25 520.519C1102.36 520.519 1097.45 527.54 1097.45 537.368V569.66H1086.21V512.095Z" fill="#040000"/>
<path d="M1210.86 563.693C1210.86 573.872 1208.41 580.541 1203.84 585.455C1198.57 591.773 1189.45 595.985 1179.26 595.985C1162.76 595.985 1153.28 586.508 1150.47 576.68H1163.46C1164.87 579.137 1166.97 581.594 1169.78 583.349C1173.29 585.806 1177.16 586.508 1179.96 586.508C1189.8 586.508 1199.63 579.488 1199.63 566.15V560.183C1196.12 566.852 1189.09 572.117 1178.56 572.117C1161 572.117 1148.36 558.779 1148.36 541.58C1148.36 523.327 1161.7 510.691 1178.56 510.691C1188.39 510.691 1196.47 515.956 1199.63 522.274V512.446H1210.86V563.693ZM1159.95 541.229C1159.95 552.11 1167.67 561.587 1179.96 561.587C1185.93 561.587 1190.85 559.481 1194.36 555.62C1197.87 552.11 1199.98 547.196 1199.98 541.229C1199.98 536.665 1198.57 531.4 1195.41 527.539C1192.25 523.327 1187.34 520.519 1179.96 520.519C1169.08 520.87 1159.95 529.294 1159.95 541.229Z" fill="#040000"/>
<path d="M1256.86 512.095H1267.4V522.274C1271.61 515.254 1279.34 510.34 1289.52 510.34C1309.54 510.34 1319.02 527.189 1319.02 541.58C1319.02 558.077 1307.08 572.117 1289.52 572.117C1277.58 572.117 1270.21 565.448 1267.75 560.885V570.362V591.422H1256.51V512.095H1256.86ZM1308.13 541.229C1308.13 531.752 1301.46 520.87 1287.77 520.87C1282.15 520.87 1276.88 522.976 1273.37 526.838C1269.86 530.348 1267.75 535.613 1267.75 541.229C1267.75 547.196 1269.86 552.11 1273.37 555.62C1276.88 559.13 1282.15 561.587 1287.77 561.587C1299.7 561.587 1308.13 552.461 1308.13 541.229Z" fill="#040000"/>
<path d="M1329.9 491.035H1341.14V570.362H1329.9V491.035Z" fill="#040000"/>
<path d="M1407.15 570.362H1396.62V561.236C1393.81 567.203 1387.49 572.117 1376.96 572.117C1358.34 572.117 1353.43 558.428 1353.43 546.143V512.095H1364.67V543.686C1364.67 554.216 1368.88 561.587 1380.12 561.587C1391 561.587 1395.92 554.567 1395.92 544.739V512.095H1407.15V570.362Z" fill="#040000"/>
<path d="M1445.08 527.189C1445.08 522.626 1442.27 519.116 1436.65 519.467C1431.03 519.467 1428.22 522.977 1428.22 526.838C1428.57 531.401 1432.44 533.507 1438.76 535.262C1447.54 537.719 1457.37 540.176 1457.72 552.812C1458.07 564.044 1448.59 571.766 1437 571.766C1427.87 571.766 1416.28 566.501 1415.93 553.163H1426.82C1427.17 560.183 1432.79 562.64 1437 562.64C1442.27 562.64 1446.48 558.779 1446.48 553.865C1446.48 548.249 1441.92 546.143 1431.73 542.633C1423.66 540.176 1417.34 536.315 1416.99 527.54C1416.99 516.659 1426.12 509.99 1436.65 509.99C1444.73 509.99 1455.26 513.851 1455.96 526.838H1445.08V527.189Z" fill="#040000"/>
<path d="M1497.05 512.095H1507.58V521.221C1510.39 515.254 1517.06 510.34 1527.25 510.34C1545.86 510.691 1550.77 524.029 1550.77 535.964V570.011H1539.54V538.421C1539.54 527.891 1535.32 520.519 1524.08 520.519C1513.2 520.519 1508.28 527.54 1508.28 537.368V569.66H1497.05V512.095Z" fill="#040000"/>
<path d="M1564.12 491.035H1575.35V502.969H1564.12V491.035ZM1564.12 512.095H1575.35V570.362H1564.12V512.095Z" fill="#040000"/>
<path d="M1589.75 512.095H1600.28V521.221C1603.09 515.254 1609.76 510.34 1619.95 510.34C1638.56 510.691 1643.47 524.029 1643.47 535.964V570.011H1632.24V538.421C1632.24 527.891 1628.02 520.519 1616.79 520.519C1605.9 520.519 1600.98 527.54 1600.98 537.368V569.66H1589.75V512.095Z" fill="#040000"/>
<path d="M1662.79 544.739C1663.49 556.673 1673.67 562.64 1682.45 562.64C1690.18 562.64 1696.15 558.779 1699.31 552.812H1710.89C1708.08 559.13 1704.22 564.044 1698.95 567.203C1694.04 570.362 1688.42 572.117 1682.45 572.117C1663.49 572.117 1651.55 556.673 1651.55 541.229C1651.55 524.38 1664.54 510.34 1682.45 510.34C1690.88 510.34 1698.25 513.499 1703.87 518.764C1710.54 525.785 1713.7 534.911 1712.65 544.739H1662.79ZM1701.76 535.964C1701.06 528.242 1693.69 519.466 1682.45 519.817C1671.21 519.817 1663.84 527.891 1663.14 535.964H1701.76Z" fill="#040000"/>
</g>
<defs>
<clipPath id="clip0_322_814">
<rect width="1505" height="298" fill="white" transform="translate(208 391)"/>
</clipPath>
</defs>
</svg>
