<svg width="1920" height="1080" viewBox="0 0 1920 1080" fill="none" xmlns="http://www.w3.org/2000/svg">
<g clip-path="url(#clip0_316_705)">
<path d="M1459.02 664.735C1441.24 664.735 1425.85 660.832 1412.82 653.046C1399.78 645.26 1389.68 634.348 1382.49 620.329C1375.38 606.31 1371.82 589.942 1371.82 571.184C1371.82 552.426 1375.38 536.017 1382.49 521.919C1389.68 507.821 1399.78 496.868 1412.82 489.082C1425.87 481.296 1441.26 477.393 1459.02 477.393C1476.77 477.393 1492.19 481.296 1505.21 489.082C1518.25 496.868 1528.32 507.821 1535.43 521.919C1542.62 536.017 1546.21 552.426 1546.21 571.184C1546.21 589.942 1542.62 606.31 1535.43 620.329C1528.32 634.348 1518.25 645.26 1505.21 653.046C1492.19 660.852 1476.77 664.735 1459.02 664.735ZM1459.26 630.485C1468.88 630.485 1476.95 627.856 1483.42 622.579C1489.89 617.223 1494.73 610.054 1497.88 601.073C1501.12 592.093 1502.73 582.096 1502.73 571.064C1502.73 560.033 1501.12 549.917 1497.88 540.936C1494.73 531.876 1489.91 524.667 1483.42 519.31C1476.95 513.954 1468.88 511.285 1459.26 511.285C1449.63 511.285 1441.16 513.954 1434.61 519.31C1428.14 524.667 1423.29 531.876 1420.03 540.936C1416.88 549.917 1415.3 559.953 1415.3 571.064C1415.3 582.176 1416.88 592.093 1420.03 601.073C1423.27 610.054 1428.12 617.223 1434.61 622.579C1441.16 627.856 1449.39 630.485 1459.26 630.485Z" fill="#222222"/>
<path d="M1309.33 661.191V479.763H1352.21V661.191H1309.33Z" fill="#222222"/>
<path d="M1183.42 664.377C1169.12 664.377 1156.34 660.713 1145.03 653.385C1133.73 646.057 1124.82 635.423 1118.25 621.484C1111.7 607.545 1108.43 590.619 1108.43 570.686C1108.43 550.753 1111.74 533.528 1118.37 519.649C1125.08 505.71 1134.13 495.196 1145.49 488.107C1156.86 480.938 1169.54 477.354 1183.52 477.354C1194.18 477.354 1202.95 479.166 1209.82 482.79C1216.69 486.334 1222.14 490.616 1226.17 495.674C1230.21 500.632 1233.32 505.311 1235.54 509.732H1237.32V419.307H1280.32V661.151H1238.14V632.556H1235.52C1233.3 636.957 1230.11 641.656 1225.94 646.614C1221.74 651.493 1216.23 655.675 1209.36 659.14C1202.49 662.605 1193.84 664.337 1183.42 664.337V664.377ZM1195.38 629.31C1204.47 629.31 1212.2 626.861 1218.61 621.982C1225 617.024 1229.85 610.134 1233.18 601.312C1236.5 592.491 1238.16 582.216 1238.16 570.487C1238.16 558.758 1236.5 548.563 1233.18 539.9C1229.95 531.238 1225.14 524.508 1218.73 519.709C1212.41 514.91 1204.63 512.5 1195.38 512.5C1186.13 512.5 1177.84 514.989 1171.45 519.948C1165.06 524.906 1160.23 531.756 1157 540.498C1153.76 549.24 1152.14 559.236 1152.14 570.507C1152.14 581.778 1153.76 591.973 1157 600.854C1160.31 609.676 1165.16 616.645 1171.57 621.763C1178.04 626.801 1185.99 629.33 1195.38 629.33V629.31Z" fill="#222222"/>
<path d="M1045.6 584.884V479.763H1088.47V661.191H1046.89V628.952H1045C1040.88 639.107 1034.13 647.411 1024.75 653.883C1015.42 660.335 1003.94 663.56 990.276 663.56C978.353 663.56 967.809 660.912 958.642 655.655C949.555 650.298 942.445 642.552 937.313 632.377C932.18 622.141 929.604 609.775 929.604 595.279V479.763H972.482V588.668C972.482 600.157 975.637 609.297 981.968 616.068C988.279 622.838 996.587 626.224 1006.85 626.224C1013.16 626.224 1019.29 624.69 1025.21 621.624C1031.14 618.557 1035.99 613.977 1039.78 607.923C1043.66 601.79 1045.6 594.104 1045.6 584.884Z" fill="#222222"/>
<path d="M910.432 479.763V512.839L805.583 512.679V479.604L910.432 479.763ZM831.646 436.293H874.524V606.629C874.524 612.384 875.383 616.785 877.12 619.851C878.937 622.838 881.314 624.889 884.23 625.984C887.145 627.08 890.401 627.637 893.936 627.637C896.612 627.637 899.068 627.438 901.285 627.04C903.582 626.642 905.319 626.283 906.497 625.984L913.727 659.419C911.43 660.215 908.155 661.071 903.901 662.007C899.707 662.943 894.575 663.501 888.504 663.66C877.759 663.979 868.093 662.366 859.486 658.821C850.878 655.197 844.048 649.601 838.995 642.054C834.022 634.487 831.566 625.049 831.646 613.698V436.293Z" fill="#222222"/>
<path fill-rule="evenodd" clip-rule="evenodd" d="M762.546 479.604C760.489 472.216 756.215 466.242 749.724 461.702C741.596 455.947 731.011 453.08 717.97 453.08C708.803 453.08 700.955 454.454 694.404 457.221C687.854 459.969 682.841 463.713 679.366 468.452C675.891 473.172 674.114 478.568 674.034 484.642C674.034 489.68 675.172 494.061 677.469 497.745C679.845 501.448 683.041 504.595 687.055 507.203C691.089 509.732 695.543 511.843 700.436 513.575C705.328 515.308 710.261 516.761 715.254 517.936L738.001 523.612C747.168 525.742 755.975 528.61 764.423 532.234C772.951 535.858 780.58 540.418 787.29 545.934C794.08 551.45 799.452 558.101 803.407 565.907C807.361 573.713 809.338 582.833 809.338 593.307C809.338 607.485 805.703 619.971 798.434 630.744C791.164 641.457 780.659 649.84 766.919 655.894C753.259 661.868 736.703 664.875 717.291 664.875C697.879 664.875 682.022 661.967 668.122 656.133C654.302 650.298 643.478 641.795 635.669 630.624C627.92 619.433 623.746 605.813 623.107 589.763H666.345C666.984 598.186 669.58 605.195 674.174 610.791C678.747 616.386 684.718 620.548 692.068 623.316C699.497 626.064 707.785 627.458 716.952 627.458C726.118 627.458 734.886 626.044 742.055 623.197C749.325 620.289 755.017 616.267 759.111 611.149C763.225 605.952 765.302 599.898 765.382 592.969C765.302 586.676 763.444 581.479 759.81 577.377C756.175 573.195 751.082 569.73 744.532 566.982C738.061 564.155 730.472 561.626 721.785 559.415L694.185 552.326C674.213 547.209 658.416 539.442 646.793 529.048C635.27 518.574 629.498 504.674 629.498 487.35C629.498 473.092 633.373 460.607 641.101 449.913C648.93 439.2 659.535 430.896 672.975 424.982C686.396 418.988 701.594 416.001 718.589 416.001C735.585 416.001 750.883 418.988 763.844 424.982C776.865 430.896 787.11 439.121 794.519 449.674C800.79 458.536 804.505 468.512 805.643 479.624H762.546V479.604Z" fill="#222222"/>
<path d="M1330.78 462.479C1324.35 462.479 1318.84 460.208 1314.25 455.688C1309.65 451.168 1307.4 445.632 1307.46 439.14C1307.4 432.768 1309.65 427.332 1314.25 422.792C1318.84 418.272 1324.35 416.001 1330.78 416.001C1337.21 416.001 1342.41 418.272 1347 422.792C1351.67 427.312 1354.03 432.768 1354.11 439.14C1354.03 443.462 1352.91 447.384 1350.71 450.929C1348.6 454.473 1345.76 457.301 1342.25 459.412C1338.79 461.463 1334.98 462.498 1330.8 462.498L1330.78 462.479Z" fill="#222222"/>
<path fill-rule="evenodd" clip-rule="evenodd" d="M623.087 446.369L405.123 663.7L373.808 632.476L591.773 415.145L623.087 446.369Z" fill="#222222"/>
</g>
<defs>
<clipPath id="clip0_316_705">
<rect width="1382" height="458" fill="white" transform="translate(269 311)"/>
</clipPath>
</defs>
</svg>
